<?xml version="1.0" encoding="UTF-8" standalone="no"?>
<!-- Created with Inkscape (http://www.inkscape.org/) -->

<svg
   xmlns:dc="http://purl.org/dc/elements/1.1/"
   xmlns:cc="http://creativecommons.org/ns#"
   xmlns:rdf="http://www.w3.org/1999/02/22-rdf-syntax-ns#"
   xmlns:svg="http://www.w3.org/2000/svg"
   xmlns="http://www.w3.org/2000/svg"
   xmlns:xlink="http://www.w3.org/1999/xlink"
   xmlns:sodipodi="http://sodipodi.sourceforge.net/DTD/sodipodi-0.dtd"
   xmlns:inkscape="http://www.inkscape.org/namespaces/inkscape"
   width="1600"
   height="900"
   id="svg2"
   version="1.1"
   inkscape:version="0.48.5 r10040"
   sodipodi:docname="bg_post.svg"
   inkscape:export-filename="C:\Users\LUIS\Documents\GitHub\01luisrene.github.io\assets\images\portadas\bg_post.png"
   inkscape:export-xdpi="90"
   inkscape:export-ydpi="90">
  <defs
     id="defs4">
    <clipPath
       id="clipPath18">
      <path
         id="path20"
         inkscape:connector-curvature="0"
         d="M 0,501.602 0,0 l 1863.85,0 0,501.602 -1863.85,0 z" />
    </clipPath>
    <linearGradient
       inkscape:collect="always"
       xlink:href="#XMLID_17_-9"
       id="linearGradient3448"
       gradientUnits="userSpaceOnUse"
       x1="174.0737"
       y1="215.5488"
       x2="132.27631"
       y2="141.7533" />
    <linearGradient
       y2="26.305901"
       x2="192.039"
       y1="9.7979002"
       x1="154.6411"
       gradientUnits="userSpaceOnUse"
       id="XMLID_32_-0">
      <stop
         id="stop3475-2"
         style="stop-color:#B31000"
         offset="0" />
      <stop
         id="stop3477-2"
         style="stop-color:#B31000"
         offset="0" />
      <stop
         id="stop3479-9"
         style="stop-color:#910F08"
         offset="0.44" />
      <stop
         id="stop3481-7"
         style="stop-color:#791C12"
         offset="0.99" />
      <stop
         id="stop3483-5"
         style="stop-color:#791C12"
         offset="1" />
    </linearGradient>
    <linearGradient
       y2="140.742"
       x2="9.9886999"
       y1="197.33591"
       x1="26.669901"
       gradientUnits="userSpaceOnUse"
       id="XMLID_31_-6">
      <stop
         id="stop3462-4"
         style="stop-color:#8B2114"
         offset="0" />
      <stop
         id="stop3464-8"
         style="stop-color:#8B2114"
         offset="0" />
      <stop
         id="stop3466-0"
         style="stop-color:#9E100A"
         offset="0.43" />
      <stop
         id="stop3468-8"
         style="stop-color:#B3100C"
         offset="0.99" />
      <stop
         id="stop3470-1"
         style="stop-color:#B3100C"
         offset="1" />
    </linearGradient>
    <radialGradient
       gradientUnits="userSpaceOnUse"
       r="66.943703"
       cy="145.75101"
       cx="74.0923"
       id="XMLID_30_-6">
      <stop
         id="stop3451-6"
         style="stop-color:#A30C00"
         offset="0" />
      <stop
         id="stop3453-2"
         style="stop-color:#A30C00"
         offset="0" />
      <stop
         id="stop3455-1"
         style="stop-color:#800E08"
         offset="0.99" />
      <stop
         id="stop3457-9"
         style="stop-color:#800E08"
         offset="1" />
    </radialGradient>
    <radialGradient
       gradientUnits="userSpaceOnUse"
       r="50.357601"
       cy="79.388199"
       cx="143.8315"
       id="XMLID_29_-4">
      <stop
         id="stop3440-0"
         style="stop-color:#A80D00"
         offset="0" />
      <stop
         id="stop3442-8"
         style="stop-color:#A80D00"
         offset="0" />
      <stop
         id="stop3444-5"
         style="stop-color:#7E0E08"
         offset="0.99" />
      <stop
         id="stop3446-1"
         style="stop-color:#7E0E08"
         offset="1" />
    </radialGradient>
    <linearGradient
       y2="26.053801"
       x2="173.15421"
       y1="47.937"
       x1="193.6235"
       gradientUnits="userSpaceOnUse"
       id="XMLID_28_-1">
      <stop
         id="stop3427-1"
         style="stop-color:#79130D"
         offset="0" />
      <stop
         id="stop3429-1"
         style="stop-color:#79130D"
         offset="0" />
      <stop
         id="stop3431-7"
         style="stop-color:#9E120B"
         offset="0.99" />
      <stop
         id="stop3433-0"
         style="stop-color:#9E120B"
         offset="1" />
    </linearGradient>
    <linearGradient
       y2="78.683998"
       x2="137.43269"
       y1="115.5146"
       x1="178.52589"
       gradientUnits="userSpaceOnUse"
       id="XMLID_27_-1">
      <stop
         id="stop3416-7"
         style="stop-color:#7E110B"
         offset="0" />
      <stop
         id="stop3418-4"
         style="stop-color:#7E110B"
         offset="0" />
      <stop
         id="stop3420-1"
         style="stop-color:#9E0C00"
         offset="0.99" />
      <stop
         id="stop3422-7"
         style="stop-color:#9E0C00"
         offset="1" />
    </linearGradient>
    <linearGradient
       y2="159.61659"
       x2="52.817699"
       y1="171.0332"
       x1="99.074699"
       gradientUnits="userSpaceOnUse"
       id="XMLID_26_-2">
      <stop
         id="stop3403-0"
         style="stop-color:#8C0C01"
         offset="0" />
      <stop
         id="stop3405-2"
         style="stop-color:#8C0C01"
         offset="0" />
      <stop
         id="stop3407-1"
         style="stop-color:#990C00"
         offset="0.54" />
      <stop
         id="stop3409-7"
         style="stop-color:#A80D0E"
         offset="0.99" />
      <stop
         id="stop3411-5"
         style="stop-color:#A80D0E"
         offset="1" />
    </linearGradient>
    <linearGradient
       y2="-2.8092999"
       x2="135.0152"
       y1="155.10451"
       x1="-18.5557"
       gradientUnits="userSpaceOnUse"
       id="XMLID_25_-9">
      <stop
         id="stop3380-7"
         style="stop-color:#BD0012"
         offset="0" />
      <stop
         id="stop3382-9"
         style="stop-color:#BD0012"
         offset="0" />
      <stop
         id="stop3384-9"
         style="stop-color:#FFFFFF"
         offset="0.07" />
      <stop
         id="stop3386-3"
         style="stop-color:#FFFFFF"
         offset="0.17" />
      <stop
         id="stop3388-2"
         style="stop-color:#C82F1C"
         offset="0.27" />
      <stop
         id="stop3390-4"
         style="stop-color:#820C01"
         offset="0.33" />
      <stop
         id="stop3392-3"
         style="stop-color:#A31601"
         offset="0.46" />
      <stop
         id="stop3394-7"
         style="stop-color:#B31301"
         offset="0.72" />
      <stop
         id="stop3396-1"
         style="stop-color:#E82609"
         offset="0.99" />
      <stop
         id="stop3398-2"
         style="stop-color:#E82609"
         offset="1" />
    </linearGradient>
    <linearGradient
       y2="146.2628"
       x2="7.1701999"
       y1="113.5547"
       x1="3.9033"
       gradientUnits="userSpaceOnUse"
       id="XMLID_24_-3">
      <stop
         id="stop3365-7"
         style="stop-color:#FFFFFF"
         offset="0" />
      <stop
         id="stop3367-1"
         style="stop-color:#FFFFFF"
         offset="0" />
      <stop
         id="stop3369-3"
         style="stop-color:#DE4024"
         offset="0.31" />
      <stop
         id="stop3371-8"
         style="stop-color:#BF190B"
         offset="0.99" />
      <stop
         id="stop3373-0"
         style="stop-color:#BF190B"
         offset="1" />
    </linearGradient>
    <linearGradient
       y2="-8.3048"
       x2="158.66859"
       y1="11.5415"
       x1="118.9761"
       gradientUnits="userSpaceOnUse"
       id="XMLID_23_-9">
      <stop
         id="stop3352-8"
         style="stop-color:#FFFFFF"
         offset="0" />
      <stop
         id="stop3354-8"
         style="stop-color:#FFFFFF"
         offset="0" />
      <stop
         id="stop3356-5"
         style="stop-color:#C81F11"
         offset="0.54" />
      <stop
         id="stop3358-8"
         style="stop-color:#BF0905"
         offset="0.99" />
      <stop
         id="stop3360-4"
         style="stop-color:#BF0905"
         offset="1" />
    </linearGradient>
    <linearGradient
       y2="65.216202"
       x2="156.3141"
       y1="25.521"
       x1="147.103"
       gradientUnits="userSpaceOnUse"
       id="XMLID_22_-7">
      <stop
         id="stop3337-8"
         style="stop-color:#FFFFFF"
         offset="0" />
      <stop
         id="stop3339-7"
         style="stop-color:#FFFFFF"
         offset="0" />
      <stop
         id="stop3341-4"
         style="stop-color:#E46342"
         offset="0.18" />
      <stop
         id="stop3343-1"
         style="stop-color:#C82410"
         offset="0.4" />
      <stop
         id="stop3345-9"
         style="stop-color:#A80D00"
         offset="0.99" />
      <stop
         id="stop3347-0"
         style="stop-color:#A80D00"
         offset="1" />
    </linearGradient>
    <linearGradient
       y2="132.1021"
       x2="99.209602"
       y1="76.715302"
       x1="96.132797"
       gradientUnits="userSpaceOnUse"
       id="XMLID_21_-3">
      <stop
         id="stop3322-3"
         style="stop-color:#FFFFFF"
         offset="0" />
      <stop
         id="stop3324-8"
         style="stop-color:#FFFFFF"
         offset="0" />
      <stop
         id="stop3326-3"
         style="stop-color:#E4714E"
         offset="0.23" />
      <stop
         id="stop3328-7"
         style="stop-color:#BE1A0D"
         offset="0.56" />
      <stop
         id="stop3330-9"
         style="stop-color:#A80D00"
         offset="0.99" />
      <stop
         id="stop3332-3"
         style="stop-color:#A80D00"
         offset="1" />
    </linearGradient>
    <linearGradient
       y2="181.66141"
       x2="47.046902"
       y1="127.3906"
       x1="38.696301"
       gradientUnits="userSpaceOnUse"
       id="XMLID_20_-9">
      <stop
         id="stop3307-7"
         style="stop-color:#FFFFFF"
         offset="0" />
      <stop
         id="stop3309-5"
         style="stop-color:#FFFFFF"
         offset="0" />
      <stop
         id="stop3311-9"
         style="stop-color:#E57252"
         offset="0.23" />
      <stop
         id="stop3313-7"
         style="stop-color:#DE3B20"
         offset="0.46" />
      <stop
         id="stop3315-8"
         style="stop-color:#A60003"
         offset="0.99" />
      <stop
         id="stop3317-5"
         style="stop-color:#A60003"
         offset="1" />
    </linearGradient>
    <linearGradient
       y2="181.638"
       x2="97.929703"
       y1="217.7852"
       x1="151.79539"
       gradientUnits="userSpaceOnUse"
       id="XMLID_19_-4">
      <stop
         id="stop3296-6"
         style="stop-color:#871101"
         offset="0" />
      <stop
         id="stop3298-7"
         style="stop-color:#871101"
         offset="0" />
      <stop
         id="stop3300-6"
         style="stop-color:#911209"
         offset="0.99" />
      <stop
         id="stop3302-0"
         style="stop-color:#911209"
         offset="1" />
    </linearGradient>
    <linearGradient
       y2="117.4093"
       x2="141.0276"
       y1="153.5576"
       x1="194.895"
       gradientUnits="userSpaceOnUse"
       id="XMLID_18_-7">
      <stop
         id="stop3285-8"
         style="stop-color:#871101"
         offset="0" />
      <stop
         id="stop3287-8"
         style="stop-color:#871101"
         offset="0" />
      <stop
         id="stop3289-6"
         style="stop-color:#911209"
         offset="0.99" />
      <stop
         id="stop3291-0"
         style="stop-color:#911209"
         offset="1" />
    </linearGradient>
    <linearGradient
       y2="141.7533"
       x2="132.27631"
       y1="215.5488"
       x1="174.0737"
       gradientUnits="userSpaceOnUse"
       id="XMLID_17_-9">
      <stop
         id="stop3272-4"
         style="stop-color:#FB7655"
         offset="0" />
      <stop
         id="stop3274-5"
         style="stop-color:#FB7655"
         offset="0" />
      <stop
         id="stop3276-1"
         style="stop-color:#E42B1E"
         offset="0.41" />
      <stop
         id="stop3278-0"
         style="stop-color:#990000"
         offset="0.99" />
      <stop
         id="stop3280-3"
         style="stop-color:#990000"
         offset="1" />
    </linearGradient>
  </defs>
  <sodipodi:namedview
     id="base"
     pagecolor="#000000"
     bordercolor="#666666"
     borderopacity="1.0"
     inkscape:pageopacity="0"
     inkscape:pageshadow="2"
     inkscape:zoom="0.51"
     inkscape:cx="865.64706"
     inkscape:cy="455.88844"
     inkscape:document-units="px"
     inkscape:current-layer="layer1"
     showgrid="false"
     inkscape:window-width="1366"
     inkscape:window-height="705"
     inkscape:window-x="-8"
     inkscape:window-y="-8"
     inkscape:window-maximized="1" />
  <metadata
     id="metadata7">
    <rdf:RDF>
      <cc:Work
         rdf:about="">
        <dc:format>image/svg+xml</dc:format>
        <dc:type
           rdf:resource="http://purl.org/dc/dcmitype/StillImage" />
        <dc:title></dc:title>
      </cc:Work>
    </rdf:RDF>
  </metadata>
  <g
     inkscape:label="Layer 1"
     inkscape:groupmode="layer"
     id="layer1"
     transform="translate(0,-152.36218)">
    <rect
       style="fill:#000000;fill-opacity:0.15873018"
       id="rect3016"
       width="1599.8303"
       height="901.57318"
       x="2.1204499e-007"
       y="150.78902" />
    <g
       id="g10"
       transform="matrix(5.9407589,0,0,-5.9407589,-859.2989,878.36169)">
      <g
         id="g12"
         transform="scale(0.1,0.1)">
        <g
           id="g14">
          <g
             id="g16"
             clip-path="url(#clipPath18)">
            <path
               style="fill:#83cd29;fill-opacity:1;fill-rule:nonzero;stroke:none"
               id="path30"
               inkscape:connector-curvature="0"
               d="m 1633.71,2.64062 c -4.3,0 -8.57,1.125 -12.33,3.30079 l -39.27,23.23439 c -5.86,3.2812 -3,4.4414 -1.07,5.1172 7.83,2.7148 9.41,3.3398 17.76,8.0742 0.87,0.4883 2.02,0.3047 2.92,-0.2227 l 30.16,-17.9101 c 1.1,-0.6055 2.64,-0.6055 3.65,0 l 117.6,67.8789 c 1.1,0.625 1.8,1.8867 1.8,3.1836 l 0,135.7231 c 0,1.328 -0.7,2.57 -1.82,3.242 l -117.56,67.824 c -1.09,0.633 -2.53,0.633 -3.63,0 l -117.53,-67.844 c -1.14,-0.652 -1.86,-1.933 -1.86,-3.222 l 0,-135.7231 c 0,-1.2969 0.72,-2.5274 1.85,-3.1446 l 32.22,-18.6132 c 17.48,-8.7383 28.19,1.5547 28.19,11.8945 l 0,134.0044 c 0,1.894 1.52,3.39 3.41,3.39 l 14.92,0 c 1.86,0 3.4,-1.496 3.4,-3.39 l 0,-134.0044 c 0,-23.3281 -12.7,-36.707 -34.82,-36.707 -6.8,0 -12.15,0 -27.09,7.3632 l -30.84,17.754 c -7.62,4.4023 -12.33,12.6367 -12.33,21.4531 l 0,135.7231 c 0,8.82 4.71,17.05 12.33,21.437 l 117.61,67.957 c 7.44,4.211 17.33,4.211 24.71,0 l 117.6,-67.957 c 7.62,-4.406 12.35,-12.617 12.35,-21.437 l 0,-135.7231 c 0,-8.8164 -4.73,-17.0196 -12.35,-21.4531 L 1646.09,5.94141 c -3.76,-2.17579 -8.02,-3.30079 -12.38,-3.30079" />
            <path
               style="fill:#83cd29;fill-opacity:1;fill-rule:nonzero;stroke:none"
               id="path32"
               inkscape:connector-curvature="0"
               d="m 1670.04,96.1484 c -51.47,0 -62.25,23.6216 -62.25,43.4376 0,1.883 1.52,3.387 3.4,3.387 l 15.21,0 c 1.7,0 3.11,-1.219 3.38,-2.879 2.29,-15.481 9.14,-23.293 40.26,-23.293 24.77,0 35.32,5.605 35.32,18.75 0,7.578 -2.99,13.203 -41.49,16.972 -32.18,3.184 -52.08,10.293 -52.08,36.036 0,23.73 20,37.882 53.53,37.882 37.68,0 56.32,-13.078 58.68,-41.132 0.09,-0.969 -0.25,-1.895 -0.89,-2.618 -0.65,-0.675 -1.55,-1.086 -2.49,-1.086 l -15.27,0 c -1.58,0 -2.98,1.125 -3.3,2.657 -3.66,16.289 -12.57,21.496 -36.73,21.496 -27.05,0 -30.19,-9.426 -30.19,-16.485 0,-8.554 3.71,-11.046 40.23,-15.878 36.14,-4.778 53.31,-11.543 53.31,-36.946 0,-25.625 -21.37,-40.3006 -58.63,-40.3006" />
          </g>
        </g>
      </g>
    </g>
    <g
       id="g3071"
       transform="matrix(6.5927178,0,0,6.5927178,918.10921,478.59471)"
       style="fill:#00ab00;fill-opacity:1">
      <path
         id="path3061"
         d="m 28,12 c -1.1,0 -2,0.9 -2,2 v 8 c 0,1.1 0.9,2 2,2 1.1,0 2,-0.9 2,-2 v -8 c 0,-1.1 -0.9,-2 -2,-2 z M 4,12 c -1.1,0 -2,0.9 -2,2 v 8 c 0,1.1 0.9,2 2,2 1.1,0 2,-0.9 2,-2 V 14 C 6,12.9 5.1,12 4,12 z m 3,11 c 0,1.657 1.343,3 3,3 v 0 4 c 0,1.1 0.9,2 2,2 1.1,0 2,-0.9 2,-2 v -4 h 4 v 4 c 0,1.1 0.9,2 2,2 1.1,0 2,-0.9 2,-2 v -4 c 1.657,0 3,-1.343 3,-3 V 12 H 7 v 11 z"
         inkscape:connector-curvature="0"
         style="fill:#00ab00;fill-opacity:1" />
      <path
         id="path3063"
         d="M 24.944,10 C 24.64,7.254 23.1,4.881 20.893,3.449 L 21.894,1.448 C 22.141,0.954 21.941,0.353 21.447,0.106 20.953,-0.141 20.352,0.059 20.105,0.553 L 19.101,2.562 18.84,2.458 C 17.947,2.161 16.992,2 16,2 15.008,2 14.053,2.161 13.16,2.458 L 12.899,2.562 11.895,0.553 C 11.648,0.059 11.047,-0.141 10.553,0.106 10.059,0.353 9.859,0.954 10.106,1.448 l 1.001,2.001 C 8.9,4.882 7.36,7.254 7.056,10 v 1 H 25 V 10 H 24.944 z M 13,8 C 12.448,8 12,7.552 12,7 12,6.448 12.447,6.001 12.998,6 12.999,6 13,6 13.001,6 c 0.001,0 0.001,0 0.002,0 0.551,0.001 0.998,0.448 0.998,1 0,0.552 -0.448,1 -1,1 z m 6,0 c -0.552,0 -1,-0.448 -1,-1 0,-0.552 0.446,-0.999 0.998,-1 0,0 10e-4,0 0.002,0 0.001,0 0.002,0 0.003,0 0.551,0.001 0.998,0.448 0.998,1 0,0.552 -0.448,1 -1,1 z"
         inkscape:connector-curvature="0"
         style="fill:#00ab00;fill-opacity:1" />
    </g>
    <path
       id="path3107"
       d="m 1557.9404,865.89082 h -209.9871 c -7.2183,0 -13.1242,5.90589 -13.1242,13.12419 v 131.24189 c 0,7.2184 5.9059,13.1242 13.1242,13.1242 h 209.9871 c 7.2182,0 13.1242,-5.9058 13.1242,-13.1242 V 879.01501 c 0,-7.2183 -5.906,-13.12419 -13.1242,-13.12419 z m -91.8693,26.24839 h 26.2483 v 26.24837 h -26.2483 v -26.24837 z m 39.3725,39.37257 v 26.24839 h -26.2484 v -26.24839 h 26.2484 z m -78.7451,-39.37257 h 26.2483 v 26.24837 h -26.2483 v -26.24837 z m 39.3726,39.37257 v 26.24839 h -26.2485 v -26.24839 h 26.2485 z m -78.7452,-39.37257 h 26.2484 v 26.24837 h -26.2484 v -26.24837 z m 39.3726,39.37257 v 26.24839 H 1400.45 v -26.24839 h 26.2485 z m -65.621,-39.37257 h 13.1242 v 26.24837 h -13.1242 v -26.24837 z m 0,39.37257 h 26.2484 v 26.24839 h -26.2484 v -26.24839 z m 13.1242,65.62105 h -13.1242 v -26.24846 h 13.1242 v 26.24846 z m 118.1177,0 h -104.9935 v -26.24846 h 104.9935 v 26.24846 z m 52.4968,0 h -39.3726 v -26.24846 h 39.3726 v 26.24846 z m 0,-39.37266 h -26.2483 v -26.24839 h 26.2483 v 26.24839 z m 0,-39.37259 h -39.3726 v -26.24837 h 39.3726 v 26.24837 z"
       inkscape:connector-curvature="0"
       style="fill:#383838;fill-opacity:1" />
    <path
       id="path3926"
       d="m 200.7004,601.39912 v -106.0204 c 0,-7.28891 -5.96364,-13.25256 -13.25255,-13.25256 H 54.922352 c -7.2889,0 -13.25255,5.96365 -13.25255,13.25256 v 106.0204 H 15.164701 v 39.75765 H 227.2055 v -39.75765 h -26.5051 z m -53.01019,26.5051 H 94.680004 v -13.25255 h 53.010206 v 13.25255 z m 39.75764,-26.5051 H 54.922352 v -105.9939 c 0.007,-0.007 0.0132,-0.0199 0.0265,-0.0265 H 187.42798 c 0.007,0.007 0.0199,0.0132 0.0265,0.0265 v 105.9939 z"
       inkscape:connector-curvature="0"
       style="fill:#606060;fill-opacity:1" />
    <path
       id="path3957"
       d="m 1553.2254,591.0958 -43.5027,-72.4899 v -29.36127 h 4.4013 c 2.4207,0 4.4013,-1.9806 4.4013,-4.40133 0,-2.42073 -1.9806,-4.40133 -4.4013,-4.40133 h -44.0133 c -2.4208,0 -4.4014,1.9806 -4.4014,4.40133 0,2.42073 1.9806,4.40133 4.4014,4.40133 h 4.4013 v 29.36127 l -43.5027,72.4899 c -9.9647,16.60622 -2.2711,30.19313 17.0947,30.19313 h 88.0266 c 19.3659,0 27.0594,-13.58691 17.0948,-30.19313 z m -98.3785,-22.62283 28.4678,-47.44194 v -31.782 h 17.6053 v 31.782 l 28.4679,47.44194 h -74.5366 z"
       inkscape:connector-curvature="0"
       style="fill:#b31fbc;fill-opacity:1" />
    <path
       id="path4480"
       d="M 29.181373,921.24774 H 49.610907 V 1023.3957 H 29.181373 z m 30.644301,0 H 70.040503 V 1023.3957 H 59.825674 z m 20.429596,0 H 90.470038 V 1023.3957 H 80.25527 z m 30.6443,0 h 10.21477 v 102.14796 h -10.21477 z m 40.85913,0 h 10.21477 V 1023.3957 H 151.7587 z m 30.64431,0 h 10.21483 v 102.14796 h -10.21483 z m -51.07384,0 h 5.10735 v 102.14796 h -5.10735 z m -30.64437,0 h 5.10742 v 102.14796 h -5.10742 z m 66.39609,0 h 5.10735 v 102.14796 h -5.10735 z M 29.181373,1033.6105 H 39.39614 v 10.2148 H 29.181373 z m 30.644301,0 h 10.214829 v 10.2148 H 59.825674 z m 20.429596,0 h 10.214768 v 10.2148 H 80.25527 z m 51.0739,0 h 10.21477 v 10.2148 h -10.21477 z m 51.07384,0 h 10.21483 v 10.2148 h -10.21483 z m -30.64431,0 h 20.42954 v 10.2148 H 151.7587 z m -51.0739,0 h 20.42954 v 10.2148 H 100.6848 z"
       inkscape:connector-curvature="0"
       style="fill:#444444" />
    <path
       id="path5001"
       d="m 929.64905,266.25113 -27.71973,-27.71982 v -37.1562 h 16.83553 v 30.18625 l 22.7871,22.787 z M 910.34708,167.7039 c -37.19405,0 -67.34242,30.14837 -67.34242,67.34244 0,37.19406 30.14837,67.34243 67.34242,67.34243 37.19407,0 67.3425,-30.14837 67.3425,-67.34243 0,-37.19407 -30.14843,-67.34244 -67.3425,-67.34244 z m 0,117.84927 c -27.89238,0 -50.50681,-22.61444 -50.50681,-50.50683 0,-27.8924 22.61443,-50.50683 50.50681,-50.50683 27.89227,0 50.5068,22.61443 50.5068,50.50683 0,27.89239 -22.61453,50.50683 -50.5068,50.50683 z"
       inkscape:connector-curvature="0"
       style="fill:#ef4444;fill-opacity:1" />
    <path
       id="path5194"
       d="m 1245.8108,963.22711 c 0.5832,-2.66306 0.8979,-5.43357 0.8979,-8.27315 0,-21.18937 -17.1833,-38.37234 -38.3727,-38.37234 -3.4151,0 -6.7152,0.44512 -9.8617,1.28164 -5.9478,-18.54933 -23.3306,-31.97976 -43.86,-31.97976 -20.9514,0 -38.6259,13.99067 -44.2053,33.13862 -5.4566,-1.58863 -11.2202,-2.4405 -17.1909,-2.4405 -33.9061,0 -61.3963,27.48986 -61.3963,61.39594 0,33.90614 27.4902,61.39634 61.3963,61.39634 h 145.816 c 21.1894,0 38.3727,-17.1833 38.3727,-38.3728 0,-18.8793 -13.6376,-34.57372 -31.596,-37.77399 z m -114.22,60.79779 -38.3727,-38.37282 15.3491,-15.34906 23.0236,23.02359 53.7216,-53.7217 15.3491,15.34905 -69.0707,69.07094 z"
       inkscape:connector-curvature="0"
       style="fill:#2d94b7;fill-opacity:1" />
    <path
       id="path5315"
       d="m 326.18712,324.8505 7.9193,-11.08458 -8.67381,-8.67382 -11.08459,7.91931 c -2.05496,-1.1471 -4.25716,-2.06724 -6.56976,-2.72361 l -2.239,-13.43399 h -12.26849 l -2.239,13.43399 c -2.31261,0.65637 -4.5148,1.57037 -6.56978,2.72361 l -11.08457,-7.91931 -8.67383,8.67382 7.91931,11.08458 c -1.1471,2.05497 -2.06724,4.25716 -2.71747,6.56978 l -13.43399,2.239 v 12.26848 l 13.43399,2.239 c 0.65637,2.3126 1.57037,4.5148 2.72361,6.56977 l -7.91931,11.08458 8.67382,8.67382 11.08458,-7.91931 c 2.05497,1.1471 4.25717,2.06724 6.56977,2.72361 l 2.239,13.43399 h 12.26848 l 2.239,-13.43399 c 2.31262,-0.65637 4.51481,-1.57037 6.56978,-2.72361 l 11.08458,7.91931 8.67382,-8.67382 -7.91931,-11.08458 c 1.1471,-2.05497 2.06724,-4.25717 2.72361,-6.56977 l 13.43399,-2.239 v -12.26848 l -13.43399,-2.239 c -0.65637,-2.31262 -1.57037,-4.51481 -2.72361,-6.56978 z m -26.78211,27.2115 c -6.77834,0 -12.26849,-5.49015 -12.26849,-12.26848 0,-6.77834 5.49015,-12.26849 12.26849,-12.26849 6.77834,0 12.26849,5.49015 12.26849,12.26849 0,6.77833 -5.49015,12.26848 -12.26849,12.26848 z M 452.7611,260.04835 v -12.26849 l -12.91872,-2.34941 c -0.23924,-1.53969 -0.53981,-3.06099 -0.90787,-4.55774 l 11.03551,-7.10959 -4.6927,-11.33608 -12.83284,2.77268 c -0.80972,-1.325 -1.67465,-2.6132 -2.58865,-3.85844 l 7.47764,-10.80241 -8.67381,-8.67382 -10.80241,7.47764 c -1.24525,-0.914 -2.53344,-1.77893 -3.85843,-2.58865 l 2.77267,-12.83284 -11.33608,-4.69269 -7.10959,11.0355 c -1.49676,-0.36192 -3.01804,-0.66863 -4.55774,-0.90786 l -2.34942,-12.91872 h -12.26848 l -2.34942,12.91872 c -1.5397,0.23923 -3.06098,0.53981 -4.55774,0.90786 l -7.10959,-11.0355 -11.33609,4.69269 2.77268,12.83284 c -1.32499,0.80972 -2.61318,1.67465 -3.85844,2.58865 l -10.8024,-7.47764 -8.67382,8.67382 7.47765,10.80241 c -0.91401,1.24524 -1.77894,2.53344 -2.58866,3.85844 l -12.83283,-2.77268 -4.6927,11.33608 11.03551,7.10959 c -0.36192,1.49675 -0.66863,3.01805 -0.90787,4.55774 l -12.91872,2.34941 v 12.26849 l 12.91872,2.34941 c 0.23924,1.5397 0.53981,3.061 0.90787,4.55775 l -11.03551,7.10959 4.6927,11.33608 12.83283,-2.77268 c 0.80972,1.325 1.67465,2.61319 2.58866,3.85844 l -7.47765,10.8024 8.67382,8.67382 10.8024,-7.47764 c 1.24526,0.914 2.53345,1.77893 3.85844,2.58865 l -2.77268,12.83284 11.33609,4.6927 7.10959,-11.03551 c 1.49676,0.36192 3.01804,0.66864 4.55774,0.90787 l 2.34942,12.91872 h 12.26848 l 2.34942,-12.91872 c 1.5397,-0.23923 3.06098,-0.53982 4.55774,-0.90787 l 7.10959,11.03551 11.33608,-4.6927 -2.77267,-12.83284 c 1.32499,-0.80972 2.61318,-1.67465 3.85843,-2.58865 l 10.80241,7.47764 8.67381,-8.67382 -7.47764,-10.8024 c 0.914,-1.24525 1.77893,-2.53344 2.58865,-3.85844 l 12.83284,2.77268 4.6927,-11.33608 -11.03551,-7.10959 c 0.36192,-1.49675 0.66863,-3.01805 0.90787,-4.55775 l 12.91872,-2.34941 z m -67.47668,20.54972 c -14.73445,0 -26.68396,-11.94951 -26.68396,-26.68396 0,-14.73446 11.94951,-26.68396 26.68396,-26.68396 14.73445,0 26.68396,11.9495 26.68396,26.68396 0,14.73445 -11.94951,26.68396 -26.68396,26.68396 z"
       inkscape:connector-curvature="0"
       style="fill:#846137;fill-opacity:1" />
    <g
       id="g5442"
       transform="matrix(3.6079578,0,0,3.6079578,1440.8856,152.65042)"
       style="fill:#ab9903;fill-opacity:1">
      <path
         id="path5432"
         d="M 15,2 C 6.716,2 0,8.716 0,17 0,25.284 6.716,32 15,32 23.284,32 30,25.284 30,17 30,8.716 23.284,2 15,2 z m 0,27 C 8.373,29 3,23.627 3,17 3,10.373 8.373,5 15,5 c 6.627,0 12,5.373 12,12 0,6.627 -5.373,12 -12,12 z"
         inkscape:connector-curvature="0"
         style="fill:#ab9903;fill-opacity:1" />
      <path
         id="path5434"
         d="M 20.963,20.136 C 20.486,19.858 19.874,20.02 19.596,20.498 19.057,21.425 18.062,22.001 17,22.001 h -4 c -1.304,0 -2.415,-0.836 -2.828,-2 H 15 c 0.552,0 1,-0.448 1,-1 0,-0.552 -0.448,-1 -1,-1 h -5 v -2 h 5 c 0.552,0 1,-0.448 1,-1 0,-0.552 -0.448,-1 -1,-1 h -4.828 c 0.413,-1.164 1.524,-2 2.828,-2 h 4 c 1.062,0 2.057,0.576 2.596,1.503 0.278,0.477 0.89,0.639 1.367,0.361 0.477,-0.278 0.639,-0.89 0.361,-1.367 -0.896,-1.54 -2.553,-2.497 -4.325,-2.497 h -4 c -2.415,0 -4.435,1.72 -4.899,4 H 6.999 c -0.552,0 -1,0.448 -1,1 0,0.552 0.448,1 1,1 h 1 v 2 h -1 c -0.552,0 -1,0.448 -1,1 0,0.552 0.448,1 1,1 H 8.1 c 0.465,2.279 2.485,4 4.899,4 h 4 c 1.772,0 3.429,-0.957 4.325,-2.497 0.278,-0.477 0.116,-1.09 -0.362,-1.367 z"
         inkscape:connector-curvature="0"
         style="fill:#ab9903;fill-opacity:1" />
    </g>
    <path
       id="path5680"
       d="m 1552.886,678.00871 h -143.7447 c -9.1222,0 -16.5859,7.46366 -16.5859,16.58591 v 99.51554 c 0,9.12224 7.4637,16.58592 16.5859,16.58592 h 143.7447 c 9.1223,0 16.586,-7.46368 16.586,-16.58592 v -99.51554 c 0,-9.12225 -7.4637,-16.58591 -16.586,-16.58591 z m -143.7447,11.05728 h 143.7447 c 2.9966,0 5.5286,2.53211 5.5286,5.52863 v 16.58592 h -154.8019 v -16.58592 c 0,-2.99652 2.5321,-5.52863 5.5286,-5.52863 z m 143.7447,110.5728 h -143.7447 c -2.9965,0 -5.5286,-2.53211 -5.5286,-5.52863 V 744.3524 h 154.8019 v 49.75776 c 0,2.99652 -2.532,5.52863 -5.5286,5.52863 z m -138.2161,-33.17183 h 11.0573 v 22.11455 h -11.0573 z m 22.1146,0 h 11.0573 v 22.11455 h -11.0573 z m 22.1146,0 h 11.0573 v 22.11455 h -11.0573 z"
       inkscape:connector-curvature="0"
       style="fill:#f73627;fill-opacity:1" />
    <path
       id="path6057"
       d="m 516.95232,515.54143 -6.86096,34.32399 h 139.69152 l -4.36956,22.16718 H 505.63237 l -6.76514,34.3176 h 139.67874 l -7.78726,39.14071 -56.29951,18.64726 -48.79332,-18.64726 3.34104,-16.97993 h -34.3176 l -8.16416,41.19134 80.69618,30.88073 93.03185,-30.88073 30.69547,-154.16728 z"
       inkscape:connector-curvature="0"
       style="fill:#2887d7;fill-opacity:1" />
    <g
       id="g6198"
       transform="matrix(4.9790387,0,0,4.9790387,268.01285,726.4521)">
      <path
         id="path6186"
         d="M 16,0 C 7.163,0 0,2.239 0,5 v 4 c 0,2.761 7.163,5 16,5 8.837,0 16,-2.239 16,-5 V 5 C 32,2.239 24.837,0 16,0 z"
         inkscape:connector-curvature="0"
         style="fill:#e80049;fill-opacity:1" />
      <path
         id="path6188"
         d="M 16,17 C 7.163,17 0,14.761 0,12 v 6 c 0,2.761 7.163,5 16,5 8.837,0 16,-2.239 16,-5 v -6 c 0,2.761 -7.163,5 -16,5 z"
         inkscape:connector-curvature="0"
         style="fill:#e80049;fill-opacity:1" />
      <path
         id="path6190"
         d="M 16,26 C 7.163,26 0,23.761 0,21 v 6 c 0,2.761 7.163,5 16,5 8.837,0 16,-2.239 16,-5 v -6 c 0,2.761 -7.163,5 -16,5 z"
         inkscape:connector-curvature="0"
         style="fill:#e80049;fill-opacity:1" />
    </g>
    <path
       id="path7883"
       d="m 1110.895,830.91897 c -12.2576,0 -23.7867,-4.77325 -32.4521,-13.44465 l -19.5642,-19.55809 -19.5581,19.55809 c -8.6714,8.6714 -20.1945,13.44465 -32.4519,13.44465 -12.25761,0 -23.78684,-4.77325 -32.45829,-13.44465 -8.67139,-8.67141 -13.44465,-20.19453 -13.44465,-32.452 0,-12.25746 4.77326,-23.78645 13.44465,-32.45785 8.67145,-8.67142 20.19454,-13.44467 32.45829,-13.44467 12.2634,0 23.7867,4.77325 32.4519,13.44467 l 19.5581,19.55784 19.5581,-19.55784 c 8.6715,-8.67142 20.1946,-13.44467 32.452,-13.44467 12.2574,0 23.7868,4.77325 32.452,13.44467 8.6714,8.6714 13.4446,20.19428 13.4446,32.45785 0,12.26359 -4.7732,23.7867 -13.4446,32.452 -8.6652,8.6714 -20.1946,13.44465 -32.452,13.44465 z m -19.5582,-26.33243 c 5.2261,5.21997 12.1719,8.10228 19.5582,8.09616 7.3862,-0.007 14.3319,-2.87619 19.558,-8.10228 5.2262,-5.2261 8.1023,-12.17179 8.1023,-19.5581 0,-7.3863 -2.8761,-14.33198 -8.1023,-19.55784 -5.2261,-5.2261 -12.1718,-8.10229 -19.558,-8.10229 -7.3863,0 -14.3321,2.87619 -19.5582,8.10229 l -19.5581,19.55784 19.5581,19.56422 z m -84.4743,-47.22435 c -7.38634,0 -14.33209,2.87619 -19.55814,8.10229 -5.22613,5.22586 -8.10234,12.17154 -8.10234,19.55784 0,7.38631 2.87621,14.332 8.10234,19.5581 5.22605,5.22609 12.1718,8.10228 19.55814,8.10228 7.3862,0 14.332,-2.87619 19.558,-8.10228 l 19.5582,-19.5581 -19.5582,-19.55784 c -5.226,-5.2261 -12.1718,-8.10229 -19.558,-8.10229 v 0 z"
       inkscape:connector-curvature="0"
       style="fill:#fc1c1f;fill-opacity:1" />
    <path
       id="path8159"
       d="M 725.33721,212.82211 711.63125,199.1205 c -3.36143,-3.36143 -8.86116,-8.86117 -12.22259,-12.22259 L 685.7027,173.19629 c -3.36143,-3.36143 -9.34694,-3.95131 -13.30258,-1.31855 l -37.47018,24.97867 c -3.95564,2.6371 -5.45202,8.27128 -3.32673,12.52187 l 9.55513,19.10593 c 0.2906,0.58554 0.62892,1.20577 1.00193,1.85204 l -48.32651,48.3265 -4.33733,30.3613 h 26.02397 v -8.67466 h 17.34931 v -17.34931 h 17.34931 v -17.34931 h 17.34931 v -9.65055 c 0.86747,0.51614 1.70024,0.98023 2.46794,1.36192 l 19.10593,9.55513 c 4.25059,2.12529 9.88477,0.62891 12.52187,-3.32673 l 24.97867,-37.47018 c 2.6371,-3.95564 2.04288,-9.94115 -1.31855,-13.29825 z m -115.4163,73.24446 -6.13298,-6.13298 42.23256,-42.23256 6.13298,6.13298 -42.23256,42.23256 z m 103.879,-58.39778 -6.13298,6.13298 c -1.68722,1.68722 -4.44576,1.68722 -6.13298,0 l -36.80223,-36.80223 c -1.68722,-1.68722 -1.68722,-4.44576 0,-6.13298 l 6.13298,-6.13298 c 1.68722,-1.68722 4.44576,-1.68722 6.13299,0 l 36.80222,36.80223 c 1.68722,1.68722 1.68722,4.44576 0,6.13298 z"
       inkscape:connector-curvature="0"
       style="fill:#dcbf01;fill-opacity:1" />
    <g
       id="g8388"
       transform="matrix(5.4032682,0,0,5.4032682,666.11999,304.53131)">
      <path
         id="path8378"
         d="m 13.757,19.868 c -0.416,0 -0.832,-0.159 -1.149,-0.476 -2.973,-2.973 -2.973,-7.81 0,-10.783 l 6,-6 c 1.44,-1.44 3.355,-2.233 5.392,-2.233 2.037,0 3.951,0.793 5.392,2.233 2.973,2.973 2.973,7.81 0,10.783 l -2.743,2.743 c -0.635,0.635 -1.663,0.635 -2.298,0 -0.635,-0.635 -0.635,-1.663 0,-2.298 l 2.743,-2.743 C 28.8,9.388 28.8,6.613 27.094,4.907 26.268,4.081 25.169,3.626 24,3.626 c -1.169,0 -2.267,0.455 -3.094,1.281 l -6,6 c -1.706,1.706 -1.706,4.481 0,6.187 0.635,0.635 0.635,1.663 0,2.298 -0.317,0.317 -0.733,0.476 -1.149,0.476 z"
         inkscape:connector-curvature="0"
         style="fill:#44c0fe;fill-opacity:1" />
      <path
         id="path8380"
         d="m 8,31.625 c -2.037,0 -3.952,-0.793 -5.392,-2.233 -2.973,-2.973 -2.973,-7.81 0,-10.783 l 2.743,-2.743 c 0.635,-0.635 1.664,-0.635 2.298,0 0.634,0.635 0.635,1.663 0,2.298 l -2.743,2.743 c -1.706,1.706 -1.706,4.481 0,6.187 0.826,0.826 1.925,1.281 3.094,1.281 1.169,0 2.267,-0.455 3.094,-1.281 l 6,-6 c 1.706,-1.706 1.706,-4.481 0,-6.187 -0.635,-0.635 -0.635,-1.663 0,-2.298 0.635,-0.635 1.663,-0.635 2.298,0 2.973,2.973 2.973,7.81 0,10.783 l -6,6 c -1.44,1.44 -3.355,2.233 -5.392,2.233 z"
         inkscape:connector-curvature="0"
         style="fill:#44c0fe;fill-opacity:1" />
    </g>
    <path
       id="path8738"
       d="m 1149.2434,213.55966 h 85.4617 v 25.63849 l 34.1846,-34.18464 -34.1846,-34.18465 v 25.63848 h -102.554 v 51.27697 h 17.0923 z m 102.554,51.27697 h -85.4616 v -25.63848 l -34.1847,34.18464 34.1847,34.18464 v -25.63848 h 102.5539 v -51.27696 h -17.0923 z"
       inkscape:connector-curvature="0"
       style="fill:#00d8fc;fill-opacity:0.46560848" />
    <path
       id="path9175"
       d="m 593.79894,766.10668 h -76.89448 c -9.06256,0 -16.47739,7.41483 -16.47739,16.47739 V 925.3882 c 0,9.0624 7.41483,16.4773 16.47739,16.4773 h 76.89448 c 9.06257,0 16.47739,-7.4149 16.47739,-16.4773 V 782.58407 c 0,-9.06256 -7.41482,-16.47739 -16.47739,-16.47739 z m -60.41709,8.23869 h 43.9397 v 5.49247 h -43.9397 v -5.49247 z M 555.3517,930.8806 c -6.06917,0 -10.98493,-4.9158 -10.98493,-10.985 0,-6.0692 4.91576,-10.9849 10.98493,-10.9849 6.06918,0 10.98492,4.9157 10.98492,10.9849 0,6.0692 -4.91574,10.985 -10.98492,10.985 z m 43.93971,-32.9548 H 511.412 V 788.07654 h 87.87941 V 897.9258 z"
       inkscape:connector-curvature="0"
       style="fill:#000000;fill-opacity:1" />
    <path
       id="path9530"
       d="m 672.26619,1052.2499 h 138.1948 V 775.85978 h -138.1948 v 276.39012 z m 86.3718,-241.84142 h 34.5487 v 34.5487 h -34.5487 v -34.5487 z m 0,69.09741 h 34.5487 v 34.5487 h -34.5487 v -34.5487 z m 0,69.09783 h 34.5487 v 34.5487 h -34.5487 v -34.5487 z m -69.0974,-138.19524 h 34.5486 v 34.5487 h -34.5486 v -34.5487 z m 0,69.09741 h 34.5486 v 34.5487 h -34.5486 v -34.5487 z m 0,69.09783 h 34.5486 v 34.5487 h -34.5486 v -34.5487 z m 138.1947,-86.37219 h 120.9205 v 17.27436 h -120.9205 z m 0,190.01837 h 34.5488 v -69.09748 h 51.823 v 69.09748 h 34.5487 V 896.78023 h -120.9205 z"
       inkscape:connector-curvature="0"
       style="fill:#ef4444;fill-opacity:1" />
    <path
       id="path11285"
       d="M 43.374135,326.59342 H 206.14802 v 23.25341 H 20.120721 v -186.0273 h 23.253414 z m 29.066764,-11.62671 c -9.632725,0 -17.440061,-7.80733 -17.440061,-17.44006 0,-9.63273 7.807336,-17.44006 17.440061,-17.44006 0.511578,0 1.023148,0.0291 1.523102,0.0697 l 18.748053,-31.24677 c -1.7847,-2.7381 -2.8311,-6.0052 -2.8311,-9.52228 0,-9.63272 7.80733,-17.44006 17.440056,-17.44006 9.63272,0 17.44006,7.80734 17.44006,17.44006 0,3.51127 -1.04059,6.78418 -2.8311,9.52228 l 18.74806,31.24677 c 0.49995,-0.0407 1.01152,-0.0697 1.5231,-0.0697 0.38949,0 0.77317,0.0174 1.15104,0.0407 l 30.9503,-54.1572 c -1.9126,-2.80204 -3.03457,-6.18541 -3.03457,-9.83038 0,-9.63273 7.80733,-17.44006 17.44005,-17.44006 9.63273,0 17.44007,7.80733 17.44007,17.44006 0,9.63273 -7.80734,17.44006 -17.44007,17.44006 -0.38949,0 -0.77317,-0.0174 -1.15104,-0.0407 l -30.95029,54.1572 c 1.91259,2.79622 3.03457,6.18541 3.03457,9.83038 0,9.63273 -7.80734,17.44006 -17.44006,17.44006 -9.63272,0 -17.44006,-7.80733 -17.44006,-17.44006 0,-3.51127 1.04059,-6.78418 2.8311,-9.52227 L 108.84411,256.7576 c -0.49995,0.0407 -1.01152,0.0697 -1.5231,0.0697 -0.51157,0 -1.02315,-0.0291 -1.5231,-0.0697 l -18.748066,31.24678 c 1.78471,2.73809 2.83111,6.00519 2.83111,9.51646 0,9.63272 -7.80733,17.44006 -17.440055,17.44006 z"
       inkscape:connector-curvature="0"
       style="fill:#59c61e;fill-opacity:1" />
    <path
       id="path11588"
       d="m 388.75446,1016.0206 c -10.28594,4.7835 -19.84893,4.7353 -26.27514,4.2694 -7.66324,-0.5543 -13.82436,-2.6508 -16.53542,-4.4863 -1.67081,-1.1286 -3.94006,-0.6949 -5.06866,0.976 -1.1286,1.6708 -0.69484,3.94 0.97598,5.0686 4.35375,2.948 12.05716,5.141 20.10196,5.7193 1.36557,0.096 2.85966,0.1607 4.47424,0.1607 7.00055,0 15.8928,-0.6667 25.4076,-5.0928 1.82745,-0.8514 2.61868,-3.0203 1.77122,-4.8477 -0.84745,-1.8275 -3.02031,-2.6187 -4.85178,-1.7713 z m 40.57745,-5.4101 c 0.34942,-31.71326 3.61072,-91.64972 -57.10484,-86.80597 -59.94442,4.82366 -44.05161,68.14993 -44.94325,89.35637 -0.79123,11.2177 -4.51441,24.9337 -9.77586,38.8906 h 16.20206 c 1.6668,-5.9161 2.89179,-11.764 3.41794,-17.3387 0.97598,0.6828 2.02024,1.3415 3.13679,1.972 1.8154,1.0684 3.37375,2.4902 5.02448,3.9963 3.85974,3.5184 8.23358,7.5026 16.78444,8.0006 0.57434,0.04 1.1527,0.048 1.71499,0.048 8.64726,0 14.55937,-3.7834 19.31476,-6.8238 2.27728,-1.4579 4.24531,-2.7151 6.09686,-3.3215 5.26145,-1.6467 9.85618,-4.3056 13.29019,-7.6874 0.53819,-0.5261 1.03622,-1.0723 1.50212,-1.6266 1.9118,7.0126 4.53449,14.9048 7.44235,22.7809 H 446.032 c -8.30587,-12.8323 -16.8728,-25.3996 -16.70009,-41.441 z m -96.24844,-17.25424 c 0,0 0,0 0,0 -0.59443,-10.35022 4.35777,-19.05772 11.0611,-19.44732 6.70333,-0.3895 12.61945,7.6834 13.21789,18.03362 0,0 0,0 0,0 0.0321,0.5583 0.0442,1.1085 0.0482,1.6588 -2.12466,0.5341 -4.04048,1.3093 -5.75949,2.213 -0.008,-0.076 -0.012,-0.1526 -0.0201,-0.229 0,0 0,0 0,0 -0.57434,-5.87589 -3.71113,-10.31002 -7.00857,-9.90842 -3.29745,0.40173 -5.50646,5.49043 -4.93211,11.36642 0,0 0,0 0,0 0.24901,2.5625 0.98802,4.84784 2.0122,6.58274 -0.25705,0.2009 -0.97598,0.731 -1.80737,1.3375 -0.62254,0.4579 -1.38163,1.0121 -2.29737,1.6869 -2.49417,-3.2734 -4.20514,-7.98054 -4.51039,-13.29014 z m 67.92094,25.58424 c -0.23697,5.4703 -7.39415,10.6153 -14.00511,12.6837 l -0.0361,0 c -2.7472,0.8916 -5.2012,2.462 -7.79578,4.1208 -4.35777,2.7914 -8.86816,5.6751 -15.37871,5.6751 -0.42573,0 -0.86352,0 -1.29729,-0.04 -5.96431,-0.3495 -8.75168,-2.8918 -12.28609,-6.1089 -1.8636,-1.699 -3.78744,-3.4541 -6.27358,-4.9121 l -0.0522,-0.04 c -5.36187,-3.0244 -8.68743,-6.7877 -8.90029,-10.0651 -0.10443,-1.6306 0.61852,-3.0404 2.15679,-4.1931 3.34163,-2.5062 5.58276,-4.1449 7.06481,-5.2293 1.64671,-1.2049 2.14073,-1.5664 2.51023,-1.9158 0.26508,-0.249 0.54623,-0.5261 0.85549,-0.8234 3.06851,-2.9841 8.20546,-7.9764 16.08559,-7.9764 4.81965,0 10.1534,1.8556 15.83657,5.5104 2.67491,1.7431 5.0044,2.5464 7.95644,3.5625 2.02827,0.6989 4.32564,1.4941 7.40218,2.8115 l 0.0482,0 c 2.87171,1.1808 6.26153,3.3336 6.10891,6.8961 z m -1.58246,-12.8524 c -0.55024,-0.2772 -1.12458,-0.5422 -1.72704,-0.7872 -2.77531,-1.1889 -5.00039,-1.9922 -6.8439,-2.6348 1.02016,-1.996 1.65073,-4.48224 1.71097,-7.18524 0,0 0,0 0,0 0.14058,-6.57479 -3.17293,-11.91262 -7.40619,-11.92062 -4.23327,0 -7.77571,5.30963 -7.91628,11.88452 0,0 0,0 0,0 -0.004,0.2169 -0.004,0.4297 -0.004,0.6426 -2.60663,-1.2009 -5.16907,-2.0684 -7.67529,-2.6066 -0.012,-0.245 -0.0241,-0.4941 -0.0321,-0.7431 0,0 0,0 0,0 -0.245,-11.97682 7.10496,-21.88922 16.41091,-22.14222 9.30594,-0.2531 17.04952,9.2497 17.2905,21.22653 0,0 0,0 0,0 0.10844,5.41409 -1.33745,10.40233 -3.81154,14.26613 z"
       inkscape:connector-curvature="0"
       style="fill:#000000;fill-opacity:1"
       inkscape:export-xdpi="90"
       inkscape:export-ydpi="90" />
    <path
       id="path11763"
       d="m 1195.7391,589.95742 c 0,22.43925 13.3879,41.83228 32.8051,51.01948 l -27.7652,-74.08933 c -3.2306,7.04804 -5.0399,14.85279 -5.0399,23.06985 z m 97.5036,-2.8619 c 0,-7.00924 -2.5855,-11.85992 -4.7974,-15.63376 -2.9492,-4.67121 -5.7189,-8.62451 -5.7189,-13.29572 0,-5.20963 4.0551,-10.06032 9.7741,-10.06032 0.257,0 0.5045,0.0291 0.7519,0.0437 -10.3563,-9.24055 -24.1516,-14.88675 -39.3051,-14.88675 -20.3341,0 -38.2283,10.16219 -48.633,25.5534 1.368,0.0437 2.6533,0.0679 3.7448,0.0679 6.0876,0 15.5124,-0.72275 15.5124,-0.72275 3.1384,-0.17948 3.5071,4.31225 0.3735,4.6712 0,0 -3.1529,0.35896 -6.6599,0.53843 l 21.1974,61.40964 12.7379,-37.20959 -9.0659,-24.20005 c -3.1335,-0.17947 -6.107,-0.53843 -6.107,-0.53843 -3.1384,-0.17947 -2.7697,-4.85068 0.3687,-4.6712 0,0 9.6091,0.72275 15.3281,0.72275 6.0876,0 15.5125,-0.72275 15.5125,-0.72275 3.1384,-0.17948 3.507,4.31225 0.3686,4.6712 0,0 -3.1578,0.35896 -6.6599,0.53843 l 21.0373,60.9391 5.8063,-18.8934 c 2.5127,-7.84356 4.4287,-13.4752 4.4287,-18.32588 z m -38.272,7.81929 -17.4673,49.42361 c 5.2145,1.49401 10.7297,2.30893 16.4439,2.30893 6.7764,0 13.2811,-1.13991 19.3299,-3.21601 -0.1552,-0.24253 -0.3007,-0.49961 -0.4171,-0.78096 l -17.8894,-47.74042 z m 50.0542,-32.15517 c 0.2523,1.80446 0.3929,3.73988 0.3929,5.83052 0,5.74806 -1.1059,12.21887 -4.4286,20.30496 l -17.7778,50.06389 c 17.3073,-9.82748 28.944,-28.08545 28.944,-49.00159 0,-9.85659 -2.5853,-19.12624 -7.1305,-27.19778 z m -51.0776,-50.41314 c -42.8655,0 -77.6109,34.74543 -77.6109,77.61092 0,42.86548 34.7454,77.61092 77.6109,77.61092 42.8654,0 77.6109,-34.74544 77.6109,-77.61092 0,-42.86549 -34.7455,-77.61092 -77.6109,-77.61092 z m 0,145.52048 c -37.5055,0 -67.9096,-30.40408 -67.9096,-67.90956 0,-37.50548 30.4041,-67.90956 67.9096,-67.90956 37.5055,0 67.9095,30.40408 67.9095,67.90956 0,37.50548 -30.404,67.90956 -67.9095,67.90956 z"
       inkscape:connector-curvature="0"
       style="fill:#007ba5;fill-opacity:1" />
    <path
       id="path11804"
       d="m 274.11401,497.43159 14.75812,165.58199 66.2535,18.39162 66.42601,-18.42036 14.78687,-165.55325 H 274.11975 z m 130.09233,54.15724 h -77.7116 l 1.85123,20.79476 h 74.01488 l -5.57669,62.34405 -41.65277,11.54436 -41.60678,-11.54436 -2.84585,-31.89067 h 20.39232 l 1.4488,16.21267 22.61151,6.09413 0.0517,-0.0111 22.62301,-6.10562 2.34566,-26.33122 h -70.3814 l -5.47896,-61.40696 h 101.72591 l -1.81673,20.3061 z"
       inkscape:connector-curvature="0"
       style="fill:#f86200;fill-opacity:1" />
    <path
       id="path4048"
       d="m 1375.1854,462.16776 -73.7068,-63.17728 c 3.4313,-6.44781 5.3825,-13.80722 5.3825,-21.62244 0,-25.45835 -20.634,-46.09237 -46.0923,-46.09237 -4.6554,0 -9.1519,0.69139 -13.3873,1.97685 l 26.6311,26.63115 c 3.9845,3.98443 3.9845,10.50394 0,14.48325 l -16.245,16.24499 c -3.9844,3.98443 -10.5039,3.98443 -14.4832,0 l -26.6312,-26.63114 c -1.2854,4.23538 -1.9768,8.73194 -1.9768,13.38727 0,25.45835 20.634,46.09237 46.0924,46.09237 7.8152,0 15.1746,-1.94612 21.6224,-5.38257 l 63.1773,73.70682 c 3.6669,4.27635 9.9252,4.51705 13.9096,0.53263 l 16.245,-16.245 c 3.9845,-3.98443 3.7438,-10.24275 -0.5326,-13.90966 z"
       inkscape:connector-curvature="0"
       style="fill:#4566b7;fill-opacity:1" />
    <path
       id="path5015"
       d="m 1296.5439,738.76931 v 6.06186 h 15.5134 v 7.75669 h -23.2701 v -17.69689 l 15.5134,-7.27191 v -6.06185 h -15.5134 v -7.7567 h 23.2701 v 17.6969 z m -11.1503,6.05798 h -16.483 l -22.7853,22.78529 -22.7852,-22.78529 h -16.483 l 31.0268,31.02679 -31.0268,31.02678 h 16.483 l 22.7852,-22.7853 22.7853,22.7853 h 16.483 l -31.0268,-31.02678 z"
       inkscape:connector-curvature="0"
       style="fill:#35a3ff;fill-opacity:1" />
    <g
       id="g6280"
       transform="matrix(4.2795724,0,0,4.2795724,945.00508,323.34607)">
      <path
         id="path6268"
         d="m 12,29 c 0,1.657 -1.343,3 -3,3 -1.657,0 -3,-1.343 -3,-3 0,-1.657 1.343,-3 3,-3 1.657,0 3,1.343 3,3 z"
         inkscape:connector-curvature="0"
         style="fill:#761212;fill-opacity:1" />
      <path
         id="path6270"
         d="m 32,29 c 0,1.657 -1.343,3 -3,3 -1.657,0 -3,-1.343 -3,-3 0,-1.657 1.343,-3 3,-3 1.657,0 3,1.343 3,3 z"
         inkscape:connector-curvature="0"
         style="fill:#751313;fill-opacity:1" />
      <path
         id="path6272"
         d="M 32,16 V 4 H 8 C 8,2.895 7.105,2 6,2 H 0 V 4 H 4 L 5.502,16.877 C 4.587,17.61 4,18.736 4,20 c 0,2.209 1.791,4 4,4 H 32 V 22 H 8 C 6.895,22 6,21.105 6,20 6,19.993 6,19.986 6,19.98 L 32,16 z"
         inkscape:connector-curvature="0"
         style="fill:#800808;fill-opacity:1" />
    </g>
    <g
       style="overflow:visible"
       id="g3577"
       transform="matrix(0.76204434,0,0,0.76204434,730.34676,528.03844)">
      <polygon
         id="polygon3282"
         points="40.38,197.58 186.849,187.641 198.13,39.95 153.5,130.41 "
         clip-rule="evenodd"
         style="fill:url(#linearGradient3448);fill-rule:evenodd" />
      <polygon
         id="polygon3293"
         points="187.089,187.54 174.5,100.65 140.209,145.93 "
         clip-rule="evenodd"
         style="fill:url(#XMLID_18_-7);fill-rule:evenodd" />
      <polygon
         id="polygon3304"
         points="187.259,187.54 95.03,180.3 40.87,197.391 "
         clip-rule="evenodd"
         style="fill:url(#XMLID_19_-4);fill-rule:evenodd" />
      <polygon
         id="polygon3319"
         points="41,197.41 64.04,121.93 13.34,132.771 "
         clip-rule="evenodd"
         style="fill:url(#XMLID_20_-9);fill-rule:evenodd" />
      <polygon
         id="polygon3334"
         points="140.2,146.18 119,63.14 58.33,120.01 "
         clip-rule="evenodd"
         style="fill:url(#XMLID_21_-3);fill-rule:evenodd" />
      <polygon
         id="polygon3349"
         points="193.32,64.31 135.97,17.47 120,69.1 "
         clip-rule="evenodd"
         style="fill:url(#XMLID_22_-7);fill-rule:evenodd" />
      <polygon
         id="polygon3362"
         points="166.5,0.77 132.77,19.41 111.49,0.52 "
         clip-rule="evenodd"
         style="fill:url(#XMLID_23_-9);fill-rule:evenodd" />
      <polygon
         id="polygon3375"
         points="0,158.09 14.13,132.32 2.7,101.62 "
         clip-rule="evenodd"
         style="fill:url(#XMLID_24_-3);fill-rule:evenodd" />
      <path
         id="path3377"
         d="m 1.94,100.65 11.5,32.62 49.97,-11.211 57.05,-53.02 L 136.56,17.9 111.209,0 68.109,16.13 C 54.53,28.76 28.18,53.75 27.23,54.22 26.29,54.7 9.83,85.81 1.94,100.65 z"
         clip-rule="evenodd"
         inkscape:connector-curvature="0"
         style="fill:#ffffff;fill-rule:evenodd" />
      <path
         id="path3400"
         d="m 42.32,42.05 c 29.43,-29.18 67.37,-46.42 81.93,-31.73 14.551,14.69 -0.88,50.39 -30.31,79.56 -29.43,29.17 -66.9,47.36 -81.45,32.67 -14.56,-14.68 0.4,-51.33 29.83,-80.5 z"
         clip-rule="evenodd"
         inkscape:connector-curvature="0"
         style="fill:url(#XMLID_25_-9);fill-rule:evenodd" />
      <path
         id="path3413"
         d="m 41,197.38 22.86,-75.72 75.92,24.39 C 112.33,171.79 81.8,193.55 41,197.38 z"
         clip-rule="evenodd"
         inkscape:connector-curvature="0"
         style="fill:url(#XMLID_26_-2);fill-rule:evenodd" />
      <path
         id="path3424"
         d="m 120.56,68.89 19.49,77.2 C 162.98,121.98 183.56,96.06 193.639,64 l -73.079,4.89 z"
         clip-rule="evenodd"
         inkscape:connector-curvature="0"
         style="fill:url(#XMLID_27_-1);fill-rule:evenodd" />
      <path
         id="path3435"
         d="m 193.44,64.39 c 7.8,-23.54 9.6,-57.31 -27.181,-63.58 l -30.18,16.67 57.361,46.91 z"
         clip-rule="evenodd"
         inkscape:connector-curvature="0"
         style="fill:url(#XMLID_28_-1);fill-rule:evenodd" />
      <path
         id="path3437"
         d="m 0,157.75 c 1.08,38.851 29.11,39.43 41.05,39.771 L 13.47,133.11 0,157.75 z"
         clip-rule="evenodd"
         inkscape:connector-curvature="0"
         style="fill:#9e1209;fill-rule:evenodd" />
      <path
         id="path3448"
         d="m 120.669,69.01 c 17.62,10.83 53.131,32.58 53.851,32.98 1.119,0.63 15.31,-23.93 18.53,-37.81 l -72.381,4.83 z"
         clip-rule="evenodd"
         inkscape:connector-curvature="0"
         style="fill:url(#XMLID_29_-4);fill-rule:evenodd" />
      <path
         id="path3459"
         d="m 63.83,121.66 30.56,58.96 c 18.07,-9.8 32.22,-21.74 45.18,-34.53 L 63.83,121.66 z"
         clip-rule="evenodd"
         inkscape:connector-curvature="0"
         style="fill:url(#XMLID_30_-6);fill-rule:evenodd" />
      <path
         id="path3472"
         d="m 13.35,133.19 -4.33,51.56 c 8.17,11.16 19.41,12.13 31.2,11.26 -8.53,-21.23 -25.57,-63.68 -26.87,-62.82 z"
         clip-rule="evenodd"
         inkscape:connector-curvature="0"
         style="fill:url(#XMLID_31_-6);fill-rule:evenodd" />
      <path
         id="path3485"
         d="m 135.9,17.61 60.71,8.52 C 193.37,12.4 183.42,3.54 166.46,0.77 L 135.9,17.61 z"
         clip-rule="evenodd"
         inkscape:connector-curvature="0"
         style="fill:url(#XMLID_32_-0);fill-rule:evenodd" />
    </g>
    <path
       id="path3916"
       d="m 491.77786,326.93002 c -39.94301,0 -72.32737,32.38474 -72.32737,72.32772 0,31.95981 20.72152,59.06463 49.46275,68.62997 3.61637,0.66903 4.9454,-1.57313 4.9454,-3.48077 0,-1.72682 -0.0904,-7.42264 -0.0994,-13.462 -20.12519,4.37583 -24.3654,-8.53467 -24.3654,-8.53467 -3.29089,-8.36289 -8.02837,-10.58698 -8.02837,-10.58698 -6.56377,-4.49335 0.49723,-4.3939 0.49723,-4.3939 7.25993,0.5063 11.08423,7.44975 11.08423,7.44975 6.45527,11.0571 16.92467,7.85661 21.04737,6.01225 0.65095,-4.67418 2.52241,-7.86565 4.5928,-9.67384 -16.0658,-1.82627 -32.9543,-8.02837 -32.9543,-35.74797 0,-7.89276 2.82979,-14.34801 7.44977,-19.41096 -0.75042,-1.82627 -3.22766,-9.17657 0.69616,-19.13972 0,0 6.07549,-1.9438 19.89914,7.41359 5.76815,-1.60025 11.95215,-2.4049 18.10002,-2.43201 6.14783,0.0271 12.34092,0.83176 18.11811,2.43201 13.80552,-9.35739 19.87201,-7.41359 19.87201,-7.41359 3.93282,9.96315 1.46466,17.32249 0.71425,19.13972 4.63801,5.06295 7.44073,11.5182 7.44073,19.41096 0,27.78289 -16.92472,33.89457 -33.0267,35.68469 2.5948,2.24216 4.90928,6.6451 4.90928,13.38967 0,9.67383 -0.0904,17.46714 -0.0904,19.84492 0,1.92572 1.30189,4.17692 4.97253,3.47173 28.72315,-9.57439 49.41791,-36.67919 49.41791,-68.62093 0,-39.94298 -32.38474,-72.32772 -72.3277,-72.32772 z"
       inkscape:connector-curvature="0"
       style="fill:#ffffff" />
    <path
       id="path3927"
       d="m 1479.2892,311.02885 c -22.7241,0 -41.1519,18.42785 -41.1519,41.15197 0,41.15195 41.1519,90.5343 41.1519,90.5343 0,0 41.152,-49.38235 41.152,-90.5343 0,-22.72412 -18.4278,-41.15197 -41.152,-41.15197 z m 0,65.84314 c -13.6377,0 -24.6911,-11.05342 -24.6911,-24.69117 0,-13.63777 11.0534,-24.69118 24.6911,-24.69118 13.6379,0 24.6912,11.05341 24.6912,24.69118 0,13.63775 -11.0533,24.69117 -24.6912,24.69117 z"
       inkscape:connector-curvature="0"
       style="fill:#732ff7;fill-opacity:0.89411765" />
  </g>
</svg>
