<?xml version="1.0" encoding="utf-8"?>
<!-- Generator: Adobe Illustrator 16.0.0, SVG Export Plug-In . SVG Version: 6.00 Build 0)  -->
<!DOCTYPE svg PUBLIC "-//W3C//DTD SVG 1.0//EN" "http://www.w3.org/TR/2001/REC-SVG-20010904/DTD/svg10.dtd">
<svg version="1.0" id="Layer_1" xmlns="http://www.w3.org/2000/svg" xmlns:xlink="http://www.w3.org/1999/xlink" x="0px" y="0px"
	 width="618px" height="255.5px" viewBox="0 0 618 255.5" style="enable-background:new 0 0 618 255.5;" xml:space="preserve">
<style type="text/css">
<![CDATA[
	.st0{fill:#58595B;}
	.st1{fill:url(#SVGID_1_);}
	.st2{fill:url(#SVGID_2_);}
	.st3{fill:url(#SVGID_3_);}
	.st4{fill:url(#SVGID_4_);}
	.st5{fill:url(#SVGID_5_);}
	.st6{fill:url(#SVGID_6_);}
	.st7{fill:url(#SVGID_7_);}
	.st8{fill:#FFFFFF;}
]]>
</style>
<g>
	<radialGradient id="SVGID_1_" cx="359.4424" cy="99.436" r="128.0491" gradientUnits="userSpaceOnUse">
		<stop  offset="0.5744" style="stop-color:#130C0E"/>
		<stop  offset="0.7977" style="stop-color:#130C0E"/>
		<stop  offset="1" style="stop-color:#130C0E"/>
	</radialGradient>
	<path class="st1" d="M511.6,189c0,4.7-3.8,8.6-8.5,8.6H215.8c-4.7,0-8.6-3.8-8.6-8.6V9.9c0-4.7,3.8-8.6,8.6-8.6h287.3
		c4.7,0,8.5,3.8,8.5,8.6V189z"/>
	<rect x="219.2" y="13.4" class="st8" width="280.5" height="172.2"/>
	<circle class="st8" cx="359.4" cy="191.8" r="3.1"/>
	<radialGradient id="SVGID_2_" cx="359.4414" cy="224.3477" r="30.5157" gradientUnits="userSpaceOnUse">
		<stop  offset="0.5744" style="stop-color:#130C0E"/>
		<stop  offset="0.7977" style="stop-color:#130C0E"/>
		<stop  offset="1" style="stop-color:#130C0E"/>
	</radialGradient>
	<polygon class="st2" points="393.3,251.1 325.6,251.1 329,197.6 389.9,197.6 	"/>
	<radialGradient id="SVGID_3_" cx="359.4443" cy="251.1406" r="36.3577" gradientUnits="userSpaceOnUse">
		<stop  offset="0.5744" style="stop-color:#130C0E"/>
		<stop  offset="0.7977" style="stop-color:#130C0E"/>
		<stop  offset="1" style="stop-color:#130C0E"/>
	</radialGradient>
	<rect x="308.1" y="247.7" class="st3" width="102.6" height="6.8"/>
</g>
<g>
	<radialGradient id="SVGID_4_" cx="518.3281" cy="176.4648" r="67.663" gradientUnits="userSpaceOnUse">
		<stop  offset="0.5744" style="stop-color:#130C0E"/>
		<stop  offset="0.7977" style="stop-color:#130C0E"/>
		<stop  offset="1" style="stop-color:#130C0E"/>
	</radialGradient>
	<path class="st4" d="M573.6,249.4c0,2.8-2.3,5.1-5.1,5.1H468.2c-2.8,0-5.1-2.3-5.1-5.1V103.5c0-2.8,2.3-5.1,5.1-5.1h100.3
		c2.8,0,5.1,2.3,5.1,5.1V249.4z"/>
	<rect x="476.1" y="112" class="st8" width="84.4" height="128.8"/>
</g>
<g>
	<radialGradient id="SVGID_5_" cx="586.3135" cy="197.8359" r="45.6348" gradientUnits="userSpaceOnUse">
		<stop  offset="0.5744" style="stop-color:#130C0E"/>
		<stop  offset="0.7977" style="stop-color:#130C0E"/>
		<stop  offset="1" style="stop-color:#130C0E"/>
	</radialGradient>
	<path class="st5" d="M617.1,247.7c0,3.8-3.1,6.8-6.8,6.8h-47.9c-3.8,0-6.8-3.1-6.8-6.8V148c0-3.8,3.1-6.8,6.8-6.8h47.9
		c3.8,0,6.8,3.1,6.8,6.8V247.7z"/>
	<rect x="559" y="153.1" class="st8" width="54.7" height="79.8"/>
	<circle class="st8" cx="586.3" cy="242.3" r="3.6"/>
</g>
<g>
	<radialGradient id="SVGID_6_" cx="149.4111" cy="171.3379" r="95.1393" gradientUnits="userSpaceOnUse">
		<stop  offset="0.5744" style="stop-color:#130C0E"/>
		<stop  offset="0.7977" style="stop-color:#130C0E"/>
		<stop  offset="1" style="stop-color:#130C0E"/>
	</radialGradient>
	<path class="st6" d="M261.7,238.6c0,3.8-3.1,6.8-6.8,6.8H44c-3.8,0-6.8-3.1-6.8-6.8V104.1c0-3.8,3.1-6.8,6.8-6.8h210.9
		c3.8,0,6.8,3.1,6.8,6.8V238.6z"/>
	<rect x="50.2" y="110.9" class="st8" width="198.4" height="117.4"/>
	<radialGradient id="SVGID_7_" cx="149.4126" cy="247.4375" r="104.9295" gradientUnits="userSpaceOnUse">
		<stop  offset="0.5744" style="stop-color:#130C0E"/>
		<stop  offset="0.7977" style="stop-color:#130C0E"/>
		<stop  offset="1" style="stop-color:#130C0E"/>
	</radialGradient>
	<path class="st7" d="M297.6,247.7c0,3.8-3.1,6.8-6.8,6.8H8c-3.8,0-6.8-3.1-6.8-6.8v-0.6c0-3.8-0.4-6.8,3.4-6.8h289.6
		c3.8,0,3.4,3.1,3.4,6.8V247.7z"/>
	<g>
		<path class="st0" d="M254.9,247.2h13.7H254.9z"/>
		<rect x="254.9" y="246.7" class="st8" width="13.7" height="0.9"/>
	</g>
	<path class="st8" d="M135.7,250h27.4c3.1,0,5.7-2.6,5.7-5.7H130C130,247.5,132.6,250,135.7,250z"/>
	<circle class="st8" cx="148" cy="105.5" r="1.8"/>
</g>
</svg>
