<?xml version="1.0" encoding="UTF-8" standalone="no"?>
<!-- Generated by IcoMoon.io -->

<svg
   xmlns:dc="http://purl.org/dc/elements/1.1/"
   xmlns:cc="http://creativecommons.org/ns#"
   xmlns:rdf="http://www.w3.org/1999/02/22-rdf-syntax-ns#"
   xmlns:svg="http://www.w3.org/2000/svg"
   xmlns="http://www.w3.org/2000/svg"
   xmlns:sodipodi="http://sodipodi.sourceforge.net/DTD/sodipodi-0.dtd"
   xmlns:inkscape="http://www.inkscape.org/namespaces/inkscape"
   version="1.1"
   width="824"
   height="480"
   viewBox="0 0 824 480"
   id="svg2"
   inkscape:version="0.48.5 r10040"
   sodipodi:docname="cover_contacto.svg"
   inkscape:export-filename="C:\Users\LUIS\Documents\GitHub\01luisrene.github.io\assets\images\portadas\cover_contacto.png"
   inkscape:export-xdpi="90"
   inkscape:export-ydpi="90">
  <metadata
     id="metadata10">
    <rdf:RDF>
      <cc:Work
         rdf:about="">
        <dc:format>image/svg+xml</dc:format>
        <dc:type
           rdf:resource="http://purl.org/dc/dcmitype/StillImage" />
        <dc:title></dc:title>
      </cc:Work>
    </rdf:RDF>
  </metadata>
  <defs
     id="defs8" />
  <sodipodi:namedview
     pagecolor="#ffffff"
     bordercolor="#666666"
     borderopacity="1"
     objecttolerance="10"
     gridtolerance="10"
     guidetolerance="10"
     inkscape:pageopacity="0"
     inkscape:pageshadow="2"
     inkscape:window-width="1366"
     inkscape:window-height="705"
     id="namedview6"
     showgrid="false"
     inkscape:zoom="0.92187499"
     inkscape:cx="389.75688"
     inkscape:cy="206.83344"
     inkscape:window-x="-8"
     inkscape:window-y="-8"
     inkscape:window-maximized="1"
     inkscape:current-layer="svg2" />
  <rect
     style="fill:#67a6dd;fill-opacity:1"
     id="rect3946"
     width="823.79138"
     height="480"
     x="-0.46594119"
     y="7.6293945e-006" />
  <path
     style="fill:none"
     inkscape:connector-curvature="0"
     d="m 110.92585,129.77891 h 74.07906 v 74.07906 h -74.07906 z"
     id="path3036" />
  <rect
     style="fill:#ffffff;fill-opacity:1"
     id="rect3784"
     width="212.61017"
     height="126.91525"
     x="50.983051"
     y="94.915253" />
  <g
     transform="matrix(10.905057,0,0,10.905057,25.515467,58.013581)"
     id="g3779"
     style="fill:#000000">
    <path
       style="fill:none"
       inkscape:connector-curvature="0"
       d="M 0,0 H 24 V 24 H 0 z"
       id="path3769" />
    <path
       style="fill:#2a2a2a;fill-opacity:0.9470588"
       inkscape:connector-curvature="0"
       d="M 21,2 H 3 C 1.9,2 1,2.9 1,4 v 12 c 0,1.1 0.9,2 2,2 h 7 l -2,3 v 1 h 8 v -1 l -2,-3 h 7 c 1.1,0 2,-0.9 2,-2 V 4 C 23,2.9 22.1,2 21,2 z m 0,12 H 3 V 4 h 18 v 10 z"
       id="path3771" />
  </g>
  <path
     style="fill:#f94818;fill-opacity:1"
     inkscape:connector-curvature="0"
     d="m 176.6584,136.12542 h -49.38604 c -3.39529,0 -6.14239,2.77796 -6.14239,6.17325 l -0.0309,37.03953 c 0,3.39529 2.77797,6.17326 6.17326,6.17326 h 49.38604 c 3.39529,0 6.17325,-2.77797 6.17325,-6.17326 v -37.03953 c 0,-3.39529 -2.77796,-6.17325 -6.17325,-6.17325 z m 0,43.21278 h -49.38604 v -30.86627 l 24.69302,15.43314 24.69302,-15.43314 v 30.86627 z m -24.69302,-21.60639 -24.69302,-15.43314 h 49.38604 l -24.69302,15.43314 z"
     id="path3038" />
  <rect
     style="fill:#ffffff;fill-opacity:1"
     id="rect3786"
     width="107.38983"
     height="144.27119"
     x="680.30511"
     y="141.55933" />
  <g
     style="fill:#000000"
     id="g3884"
     transform="matrix(8.1920904,0,0,8.1920904,636.64472,113.99671)">
    <path
       id="path3874"
       d="M 0,0 H 24 V 24 H 0 z"
       inkscape:connector-curvature="0"
       style="fill:none" />
    <path
       id="path3876"
       d="M 17,1.01 7,1 C 5.9,1 5.01,1.9 5.01,3 v 18 c 0,1.1 0.89,2 1.99,2 h 10 c 1.1,0 2,-0.9 2,-2 V 3 C 19,1.9 18.1,1.01 17,1.01 z M 17,19 H 7 V 5 h 10 v 14 z"
       inkscape:connector-curvature="0"
       style="fill:#4a4a4a;fill-opacity:1" />
  </g>
  <g
     style="fill:#000000"
     id="g3018"
     transform="matrix(14.293786,0,0,14.293786,527.50452,112.81499)">
    <path
       id="path3010"
       d="M 0,0 H 24 V 24 H 0 z"
       inkscape:connector-curvature="0"
       style="fill:none" />
  </g>
  <path
     style="fill:#ffffff;stroke:#000000;stroke-width:1px;stroke-linecap:butt;stroke-linejoin:miter;stroke-opacity:1"
     d="m 372.0678,338.98305 31.45763,-16.27119 62.91525,20.61017 -3.25424,114.98305 -17.35593,4.33899 -45.55932,-22.77966 -24.94915,-29.28814 z"
     id="path3790"
     inkscape:connector-curvature="0" />
  <g
     id="g3922"
     transform="translate(8.193441,8.6021865)">
    <g
       id="g3933"
       transform="translate(12.272497,-7.6703108)">
      <g
         style="fill:#000000"
         id="g3074"
         transform="matrix(12.079096,0,0,12.079096,394.36835,226.25422)">
        <path
           id="path3064"
           d="m 7.3281858,7.3334557 -0.113715,0.021322 -3.7952396,1.4711884 -4.26431408,-1.49251 -4.00845542,1.3503662 c -0.1492509,0.04975 -0.2558588,0.1776795 -0.2558588,0.3411455 V 19.771039 c 0,0.199002 0.1563582,0.35536 0.3553595,0.35536 l 0.1137151,-0.02132 3.79523962,-1.471188 4.26431408,1.49251 4.0084553,-1.350369 c 0.1492507,-0.04975 0.2558586,-0.17768 0.2558586,-0.341145 V 7.6888152 c 0,-0.1990013 -0.1563582,-0.3553595 -0.3553593,-0.3553595 z M 3.4192312,18.70496 -0.84508288,17.205343 V 8.7548938 L 3.4192312,10.254511 v 8.450449 z"
           inkscape:connector-curvature="0"
           style="fill:#f9dc00;fill-opacity:1" />
        <path
           id="path3066"
           d="M 0,0 H 24 V 24 H 0 z"
           inkscape:connector-curvature="0"
           style="fill:none" />
      </g>
      <g
         style="fill:#000000"
         id="g3102"
         transform="matrix(2,0,0,2,342.32475,408.2096)">
        <path
           id="path3092"
           d="M 0,0 H 24 V 24 H 0 z"
           inkscape:connector-curvature="0"
           style="fill:none" />
        <path
           id="path3094"
           d="m 33.093358,-5.4927743 c -1.824741,0 -3.302699,1.4779578 -3.302699,3.302699 0,1.82474122 1.477958,3.302699 3.302699,3.302699 1.824741,0 3.302699,-1.47795778 3.302699,-3.302699 0,-1.8247412 -1.477958,-3.302699 -3.302699,-3.302699 z M 40.474891,-3.01575 C 40.09508,-6.4588135 37.362097,-9.1917972 33.919033,-9.5716076 v -1.7008904 h -1.651349 v 1.7008904 c -3.443064,0.3798104 -6.176048,3.1127941 -6.555858,6.5558576 h -1.70089 v 1.6513495 h 1.70089 c 0.37981,3.4430637 3.112794,6.1760471 6.555858,6.5558575 v 1.70089 h 1.651349 v -1.70089 c 3.443064,-0.3798104 6.176047,-3.1127938 6.555858,-6.5558575 h 1.70089 V -3.01575 h -1.70089 z m -7.381533,6.605398 c -3.195361,0 -5.779723,-2.584362 -5.779723,-5.7797233 0,-3.1953613 2.584362,-5.7797233 5.779723,-5.7797233 3.195362,0 5.779724,2.584362 5.779724,5.7797233 0,3.1953613 -2.584362,5.7797233 -5.779724,5.7797233 z"
           inkscape:connector-curvature="0"
           style="fill:#082791;fill-opacity:1" />
      </g>
      <g
         style="fill:#000000"
         id="g3130"
         transform="matrix(3.7627119,0,0,3.7627119,363.49326,300.12595)">
        <path
           id="path3120"
           d="M 12,2 C 8.13,2 5,5.13 5,9 c 0,5.25 7,13 7,13 0,0 7,-7.75 7,-13 0,-3.87 -3.13,-7 -7,-7 z m 0,9.5 C 10.62,11.5 9.5,10.38 9.5,9 9.5,7.62 10.62,6.5 12,6.5 c 1.38,0 2.5,1.12 2.5,2.5 0,1.38 -1.12,2.5 -2.5,2.5 z"
           inkscape:connector-curvature="0"
           style="fill:#e81808;fill-opacity:0.97647059" />
        <path
           id="path3122"
           d="M 0,0 H 24 V 24 H 0 z"
           inkscape:connector-curvature="0"
           style="fill:none" />
      </g>
    </g>
  </g>
  <path
     style="fill:#ffffff;stroke:#000000;stroke-width:1px;stroke-linecap:butt;stroke-linejoin:miter;stroke-opacity:1"
     d="m 566.23729,216.40678 17.35593,-18.44068 15.18644,-9.76271 19.52543,6.50847 15.18644,19.52543 6.50847,24.94915 -10.84745,19.52542 -16.27119,16.27119 -19.52542,-1.08475 -14.1017,-13.01695 -10.84746,-21.69491 z"
     id="path3792"
     inkscape:connector-curvature="0" />
  <g
     id="g3915"
     transform="translate(29.47687,-7.6703109)">
    <g
       transform="matrix(5.3446328,0,0,5.3446328,509.05948,175.6092)"
       id="g3856"
       style="fill:#000000">
      <path
         style="opacity:0.1;fill:none"
         inkscape:connector-curvature="0"
         d="M 0,0 H 24 V 24 H 0 z"
         id="path3846" />
      <path
         style="fill:#07566b;fill-opacity:1"
         inkscape:connector-curvature="0"
         d="M 20,12 C 20,9.46 18.81,7.19 16.96,5.73 L 16,0 H 8 L 7.05,5.73 C 5.19,7.19 4,9.45 4,12 c 0,2.55 1.19,4.81 3.05,6.27 L 8,24 h 8 l 0.96,-5.73 C 18.81,16.81 20,14.54 20,12 z M 6,12 c 0,-3.31 2.69,-6 6,-6 3.31,0 6,2.69 6,6 0,3.31 -2.69,6 -6,6 -3.31,0 -6,-2.69 -6,-6 z"
         id="path3848" />
    </g>
    <text
       sodipodi:linespacing="125%"
       id="text3902"
       y="247.78732"
       x="548.71185"
       style="font-size:20px;font-style:normal;font-weight:normal;line-height:125%;letter-spacing:0px;word-spacing:0px;fill:#000000;fill-opacity:1;stroke:none;font-family:Sans"
       xml:space="preserve"><tspan
         y="247.78732"
         x="548.71185"
         id="tspan3904"
         sodipodi:role="line">24:00</tspan></text>
  </g>
  <g
     style="fill:#000000"
     id="g3126"
     transform="matrix(7.6248946,0,0,7.6248946,338.36836,54.07571)">
    <path
       id="path3116"
       d="M 0,0 H 24 V 24 H 0 z"
       inkscape:connector-curvature="0"
       style="opacity:0.1;fill:none" />
    <g
       id="g3901">
      <g
         transform="matrix(1.7796162,0,0,1.7796162,-9.4559878,-4.2250171)"
         id="g3034"
         style="fill:#000000">
        <path
           style="fill:#ffffff;fill-opacity:1"
           inkscape:connector-curvature="0"
           d="m 12,5.9 c 1.16,0 2.1,0.94 2.1,2.1 0,1.16 -0.94,2.1 -2.1,2.1 C 10.84,10.1 9.9,9.16 9.9,8 9.9,6.84 10.84,5.9 12,5.9 m 0,9 c 2.97,0 6.1,1.46 6.1,2.1 v 1.1 H 5.9 V 17 c 0,-0.64 3.13,-2.1 6.1,-2.1 M 12,4 C 9.79,4 8,5.79 8,8 c 0,2.21 1.79,4 4,4 2.21,0 4,-1.79 4,-4 0,-2.21 -1.79,-4 -4,-4 z m 0,9 c -2.67,0 -8,1.34 -8,4 v 3 h 16 v -3 c 0,-2.66 -5.33,-4 -8,-4 z"
           id="path3024" />
        <path
           style="fill:none"
           inkscape:connector-curvature="0"
           d="M 0,0 H 24 V 24 H 0 z"
           id="path3026" />
      </g>
      <path
         style="fill:#1a1a1a;fill-opacity:1"
         inkscape:connector-curvature="0"
         d="m 12,1.6035738 c -4.5255908,0 -8.1952349,3.1086355 -8.1952349,6.9423621 v 5.3996151 c 0,1.28048 1.2201794,2.314121 2.731745,2.314121 h 2.731745 V 10.088683 H 5.6259284 V 8.5459359 c 0,-2.9852157 2.8501206,-5.399615 6.3740716,-5.399615 3.523951,0 6.374072,2.4143993 6.374072,5.399615 v 1.5427471 h -3.642327 v 6.170989 h 3.642327 v 0.771373 H 12 v 1.542747 h 5.46349 c 1.511565,0 2.731745,-1.03364 2.731745,-2.31412 V 8.5459359 C 20.195235,4.7122093 16.525591,1.6035738 12,1.6035738 z"
         id="path3118" />
    </g>
  </g>
</svg>
