<?xml version="1.0" encoding="UTF-8" standalone="no"?>
<!-- Generated by IcoMoon.io -->

<svg
   xmlns:dc="http://purl.org/dc/elements/1.1/"
   xmlns:cc="http://creativecommons.org/ns#"
   xmlns:rdf="http://www.w3.org/1999/02/22-rdf-syntax-ns#"
   xmlns:svg="http://www.w3.org/2000/svg"
   xmlns="http://www.w3.org/2000/svg"
   xmlns:sodipodi="http://sodipodi.sourceforge.net/DTD/sodipodi-0.dtd"
   xmlns:inkscape="http://www.inkscape.org/namespaces/inkscape"
   version="1.1"
   width="824"
   height="480"
   viewBox="0 0 824 480"
   id="svg2"
   inkscape:version="0.48.5 r10040"
   sodipodi:docname="cover_acerca.svg"
   inkscape:export-filename="C:\Users\LUIS\Documents\GitHub\01luisrene.github.io\assets\images\portadas\cover_acerca.png"
   inkscape:export-xdpi="90"
   inkscape:export-ydpi="90">
  <metadata
     id="metadata10">
    <rdf:RDF>
      <cc:Work
         rdf:about="">
        <dc:format>image/svg+xml</dc:format>
        <dc:type
           rdf:resource="http://purl.org/dc/dcmitype/StillImage" />
        <dc:title />
      </cc:Work>
    </rdf:RDF>
  </metadata>
  <defs
     id="defs8" />
  <sodipodi:namedview
     pagecolor="#ffffff"
     bordercolor="#666666"
     borderopacity="1"
     objecttolerance="10"
     gridtolerance="10"
     guidetolerance="10"
     inkscape:pageopacity="0"
     inkscape:pageshadow="2"
     inkscape:window-width="1366"
     inkscape:window-height="705"
     id="namedview6"
     showgrid="false"
     inkscape:zoom="0.65186406"
     inkscape:cx="537.21305"
     inkscape:cy="111.84124"
     inkscape:window-x="-8"
     inkscape:window-y="-8"
     inkscape:window-maximized="1"
     inkscape:current-layer="svg2" />
  <rect
     style="fill:#00b140;fill-opacity:1"
     id="rect3946"
     width="823.79138"
     height="480"
     x="1.5340588"
     y="7.6293945e-006" />
  <path
     style="fill:none"
     inkscape:connector-curvature="0"
     d="m 110.92585,129.77891 h 74.07906 v 74.07906 h -74.07906 z"
     id="path3036" />
  <g
     style="fill:#000000"
     id="g3048"
     transform="matrix(18.491168,0,0,18.491168,189.71937,66.493507)">
    <path
       id="path3038"
       d="M 0,0 H 24 V 24 H 0 z"
       inkscape:connector-curvature="0"
       style="fill:none" />
    <path
       id="path3040"
       d="m 11.483722,13.46382 h 1.614361 V 8.620736 h -1.614361 v 4.843084 z m 0.80718,-12.1077106 c -4.4556374,0 -8.0718071,3.6161697 -8.0718071,8.0718073 0,4.4556373 3.6161697,8.0718073 8.0718071,8.0718073 4.455638,0 8.071808,-3.61617 8.071808,-8.0718073 0,-4.4556376 -3.61617,-8.0718073 -8.071808,-8.0718073 z m 0,14.5292526 c -3.5596667,0 -6.4574456,-2.897778 -6.4574456,-6.4574453 0,-3.5596669 2.8977789,-6.4574458 6.4574456,-6.4574458 3.559668,0 6.457446,2.8977789 6.457446,6.4574458 0,3.5596673 -2.897778,6.4574453 -6.457446,6.4574453 z m -0.80718,-8.8789874 h 1.614361 V 5.3920131 h -1.614361 v 1.6143615 z"
       inkscape:connector-curvature="0"
       style="fill:#ffffff;fill-opacity:1" />
  </g>
</svg>
