<?xml version="1.0" encoding="UTF-8" standalone="no"?>
<!-- Generated by IcoMoon.io -->

<svg
   xmlns:dc="http://purl.org/dc/elements/1.1/"
   xmlns:cc="http://creativecommons.org/ns#"
   xmlns:rdf="http://www.w3.org/1999/02/22-rdf-syntax-ns#"
   xmlns:svg="http://www.w3.org/2000/svg"
   xmlns="http://www.w3.org/2000/svg"
   xmlns:sodipodi="http://sodipodi.sourceforge.net/DTD/sodipodi-0.dtd"
   xmlns:inkscape="http://www.inkscape.org/namespaces/inkscape"
   version="1.1"
   width="824"
   height="480"
   viewBox="0 0 824 480"
   id="svg2"
   inkscape:version="0.48.5 r10040"
   sodipodi:docname="cover_habilidades_conocimientos.svg"
   inkscape:export-filename="C:\Users\LUIS\Desktop\cover_acerca.png"
   inkscape:export-xdpi="90"
   inkscape:export-ydpi="90">
  <metadata
     id="metadata10">
    <rdf:RDF>
      <cc:Work
         rdf:about="">
        <dc:format>image/svg+xml</dc:format>
        <dc:type
           rdf:resource="http://purl.org/dc/dcmitype/StillImage" />
        <dc:title />
      </cc:Work>
    </rdf:RDF>
  </metadata>
  <defs
     id="defs8" />
  <sodipodi:namedview
     pagecolor="#ffffff"
     bordercolor="#666666"
     borderopacity="1"
     objecttolerance="10"
     gridtolerance="10"
     guidetolerance="10"
     inkscape:pageopacity="0"
     inkscape:pageshadow="2"
     inkscape:window-width="1366"
     inkscape:window-height="705"
     id="namedview6"
     showgrid="false"
     inkscape:zoom="0.65186406"
     inkscape:cx="537.21305"
     inkscape:cy="111.84124"
     inkscape:window-x="-8"
     inkscape:window-y="-8"
     inkscape:window-maximized="1"
     inkscape:current-layer="g3104" />
  <rect
     style="fill:#ffffff;fill-opacity:1"
     id="rect3946"
     width="823.79138"
     height="481.69553"
     x="1.5340588"
     y="0.30448151" />
  <g
     style="fill:#000000"
     id="g3052"
     transform="matrix(15.614802,0,0,15.614802,120.20186,64.81414)">
    <path
       id="path3042"
       d="M 0,0 H 24 V 24 H 0 z"
       inkscape:connector-curvature="0"
       style="fill:none" />
    <g
       id="g3136"
       style="fill:#333333;fill-opacity:1">
      <path
         inkscape:connector-curvature="0"
         d="M 21,2 H 3 C 1.9,2 1,2.9 1,4 v 12 c 0,1.1 0.9,2 2,2 h 7 l -2,3 v 1 h 8 v -1 l -2,-3 h 7 c 1.1,0 2,-0.9 2,-2 V 4 C 23,2.9 22.1,2 21,2 z m 0,12 H 3 V 4 h 18 v 10 z"
         id="path3044"
         style="fill:#333333;fill-opacity:1" />
    </g>
  </g>
  <path
     style="fill:none"
     inkscape:connector-curvature="0"
     d="m 199.90146,117.50641 h 74.07906 v 74.07906 h -74.07906 z"
     id="path3036" />
  <g
     style="fill:#000000"
     id="g3012"
     transform="matrix(6.474348,0,0,6.474348,227.87749,126.32193)">
    <path
       id="path3002"
       d="M 0,0 H 24 V 24 H 0 V 0 z"
       inkscape:connector-curvature="0"
       style="fill:none" />
    <path
       id="path3004"
       d="M 9.4,16.6 4.8,12 9.4,7.4 8,6 2,12 8,18 9.4,16.6 z m 5.2,0 L 19.2,12 14.6,7.4 16,6 l 6,6 -6,6 -1.4,-1.4 z"
       inkscape:connector-curvature="0"
       style="fill:#ff6015;fill-opacity:1" />
  </g>
  <g
     style="fill:#000000"
     id="g3104"
     transform="matrix(7.1135406,0,0,7.1135406,500.64927,236.62911)">
    <path
       id="path3094"
       d="M 0,0 H 24 V 24 H 0 V 0 z"
       inkscape:connector-curvature="0"
       style="fill:none" />
    <path
       id="path3096"
       d="m 11.8,12.5 v -1 l 1.1,-0.8 C 13,10.6 13,10.5 13,10.4 L 12,8.7 C 11.9,8.6 11.8,8.5 11.7,8.6 L 10.4,9 C 10.1,8.8 9.8,8.6 9.5,8.5 L 9.3,7.2 C 9.3,7.1 9.2,7 9,7 H 7 C 6.9,7 6.8,7.1 6.7,7.2 L 6.5,8.5 C 6.2,8.6 5.9,8.8 5.6,9 L 4.3,8.5 C 4.2,8.5 4.1,8.5 4,8.6 l -1,1.7 c -0.1,0.1 0,0.2 0.1,0.3 l 1.1,0.8 v 1 L 3.1,13.2 C 3,13.4 3,13.5 3,13.6 l 1,1.7 c 0.1,0.1 0.2,0.2 0.3,0.1 L 5.7,15 c 0.3,0.2 0.6,0.4 0.9,0.5 l 0.2,1.3 C 6.7,16.9 6.9,17 7,17 h 2 c 0.1,0 0.2,-0.1 0.3,-0.2 l 0.2,-1.3 c 0.3,-0.1 0.6,-0.3 0.9,-0.5 l 1.3,0.5 c 0.1,0 0.2,0 0.3,-0.1 l 1,-1.7 c 0.1,-0.1 0,-0.2 -0.1,-0.3 L 11.8,12.5 z M 8,14 c -1.1,0 -2,-0.9 -2,-2 0,-1.1 0.9,-2 2,-2 1.1,0 2,0.9 2,2 0,1.1 -0.9,2 -2,2 z M 19,1 H 9 C 7.9,1 7,1.9 7,3 V 6 H 9 V 4 H 19 V 20 H 9 V 18 H 7 v 3 c 0,1.1 0.9,2 2,2 h 10 c 1.1,0 2,-0.9 2,-2 V 3 C 21,1.9 20.1,1 19,1 z"
       inkscape:connector-curvature="0"
       style="fill:#237a9d;fill-opacity:1" />
  </g>
</svg>
