<?xml version="1.0" encoding="UTF-8" standalone="no"?>
<!-- Generated by IcoMoon.io -->

<svg
   xmlns:dc="http://purl.org/dc/elements/1.1/"
   xmlns:cc="http://creativecommons.org/ns#"
   xmlns:rdf="http://www.w3.org/1999/02/22-rdf-syntax-ns#"
   xmlns:svg="http://www.w3.org/2000/svg"
   xmlns="http://www.w3.org/2000/svg"
   xmlns:sodipodi="http://sodipodi.sourceforge.net/DTD/sodipodi-0.dtd"
   xmlns:inkscape="http://www.inkscape.org/namespaces/inkscape"
   version="1.1"
   width="824"
   height="480"
   viewBox="0 0 824 480"
   id="svg2"
   inkscape:version="0.48.5 r10040"
   sodipodi:docname="cover_acerca.svg"
   inkscape:export-filename="C:\Users\LUIS\Documents\GitHub\01luisrene.github.io\assets\images\portadas\cover_acerca.png"
   inkscape:export-xdpi="90"
   inkscape:export-ydpi="90">
  <metadata
     id="metadata10">
    <rdf:RDF>
      <cc:Work
         rdf:about="">
        <dc:format>image/svg+xml</dc:format>
        <dc:type
           rdf:resource="http://purl.org/dc/dcmitype/StillImage" />
        <dc:title></dc:title>
      </cc:Work>
    </rdf:RDF>
  </metadata>
  <defs
     id="defs8" />
  <sodipodi:namedview
     pagecolor="#ffffff"
     bordercolor="#666666"
     borderopacity="1"
     objecttolerance="10"
     gridtolerance="10"
     guidetolerance="10"
     inkscape:pageopacity="0"
     inkscape:pageshadow="2"
     inkscape:window-width="1366"
     inkscape:window-height="705"
     id="namedview6"
     showgrid="false"
     inkscape:zoom="0.65186406"
     inkscape:cx="537.21305"
     inkscape:cy="111.84124"
     inkscape:window-x="-8"
     inkscape:window-y="-8"
     inkscape:window-maximized="1"
     inkscape:current-layer="svg2" />
  <rect
     style="fill:#0f0f0f;fill-opacity:0.71176469"
     id="rect3946"
     width="823.79138"
     height="480"
     x="1.5340588"
     y="7.6293945e-006" />
  <path
     style="fill:#ff6666;stroke:#000000;stroke-width:1px;stroke-linecap:butt;stroke-linejoin:miter;stroke-opacity:1;fill-opacity:1"
     d="m 293.00588,289.77629 -13.80656,-92.04373 38.35155,-47.55593 39.88562,-33.74937 52.15811,-9.20437 35.28343,0 55.22624,29.14718 30.68124,38.35156 15.34063,52.15811 0,53.69218 -10.73844,38.35155 -33.74937,26.07906 -38.35155,23.01093 -61.36249,9.20437 -56.7603,-16.87468 -44.4878,-42.95374 z"
     id="path3776"
     inkscape:connector-curvature="0" />
  <path
     style="fill:none"
     inkscape:connector-curvature="0"
     d="m 110.92585,129.77891 h 74.07906 v 74.07906 h -74.07906 z"
     id="path3036" />
  <path
     style="fill:none"
     inkscape:connector-curvature="0"
     d="M 189.71937,66.493507 H 633.5074 V 510.28154 H 189.71937 z"
     id="path3038" />
  <path
     style="fill:#ffffff;fill-opacity:1"
     inkscape:connector-curvature="0"
     d="m 416.9925,91.569554 c -82.38994,0 -149.25714,66.867206 -149.25714,149.257146 0,82.38994 66.8672,149.25714 149.25714,149.25714 82.38995,0 149.25716,-66.8672 149.25716,-149.25714 0,-82.38994 -66.86721,-149.257146 -149.25716,-149.257146 z m 0,268.662846 c -65.82239,0 -119.40571,-53.5833 -119.40571,-119.4057 0,-65.8224 53.58332,-119.40572 119.40571,-119.40572 65.82242,0 119.40572,53.58332 119.40572,119.40572 0,65.8224 -53.5833,119.4057 -119.40572,119.4057 z"
     id="path3040"
     sodipodi:nodetypes="ssssssssss" />
  <path
     style="fill:#31312c;fill-opacity:1"
     inkscape:connector-curvature="0"
     d="m 401.27107,319.91705 29.85142,0 0,-89.55428 -29.85142,0 0,53.13687 z m 0,-119.4057 29.85142,0 0,-29.85143 -29.85142,0 z"
     id="path3040-5"
     sodipodi:nodetypes="ccccccccccc" />
</svg>
