<?xml version="1.0" encoding="UTF-8" standalone="no"?>
<!-- Generated by IcoMoon.io -->

<svg
   xmlns:dc="http://purl.org/dc/elements/1.1/"
   xmlns:cc="http://creativecommons.org/ns#"
   xmlns:rdf="http://www.w3.org/1999/02/22-rdf-syntax-ns#"
   xmlns:svg="http://www.w3.org/2000/svg"
   xmlns="http://www.w3.org/2000/svg"
   xmlns:sodipodi="http://sodipodi.sourceforge.net/DTD/sodipodi-0.dtd"
   xmlns:inkscape="http://www.inkscape.org/namespaces/inkscape"
   version="1.1"
   width="824"
   height="480"
   viewBox="0 0 824 480"
   id="svg2"
   inkscape:version="0.48.5 r10040"
   sodipodi:docname="cover_habilidades_conocimientos.svg"
   inkscape:export-filename="C:\Users\LUIS\Desktop\cover_acerca.png"
   inkscape:export-xdpi="90"
   inkscape:export-ydpi="90">
  <metadata
     id="metadata10">
    <rdf:RDF>
      <cc:Work
         rdf:about="">
        <dc:format>image/svg+xml</dc:format>
        <dc:type
           rdf:resource="http://purl.org/dc/dcmitype/StillImage" />
        <dc:title></dc:title>
      </cc:Work>
    </rdf:RDF>
  </metadata>
  <defs
     id="defs8" />
  <sodipodi:namedview
     pagecolor="#ffffff"
     bordercolor="#666666"
     borderopacity="1"
     objecttolerance="10"
     gridtolerance="10"
     guidetolerance="10"
     inkscape:pageopacity="0"
     inkscape:pageshadow="2"
     inkscape:window-width="1366"
     inkscape:window-height="705"
     id="namedview6"
     showgrid="false"
     inkscape:zoom="0.65186406"
     inkscape:cx="537.21305"
     inkscape:cy="234.56621"
     inkscape:window-x="-8"
     inkscape:window-y="-8"
     inkscape:window-maximized="1"
     inkscape:current-layer="svg2" />
  <rect
     style="fill:#ffffff;fill-opacity:1"
     id="rect3946"
     width="823.79138"
     height="480"
     x="1.5340588"
     y="7.6293945e-006" />
  <path
     style="fill:none"
     inkscape:connector-curvature="0"
     d="m 199.90146,117.50641 h 74.07906 v 74.07906 h -74.07906 z"
     id="path3036" />
  <g
     style="fill:#000000"
     id="g4011"
     transform="matrix(18.897393,0,0,19.792261,179.75777,29.258217)">
    <path
       id="path4003"
       d="M 0,0 H 24 V 24 H 0 z"
       inkscape:connector-curvature="0"
       style="fill:none" />
  </g>
  <g
     id="g4043"
     transform="translate(10.738435,-3.0681244)">
    <g
       transform="matrix(6.9217828,0,0,6.9217828,322.69805,189.07318)"
       id="g3971"
       style="fill:#000000">
      <path
         style="fill:#006187;fill-opacity:1"
         inkscape:connector-curvature="0"
         d="m 12,5.9 c 1.16,0 2.1,0.94 2.1,2.1 0,1.16 -0.94,2.1 -2.1,2.1 C 10.84,10.1 9.9,9.16 9.9,8 9.9,6.84 10.84,5.9 12,5.9 m 0,9 c 2.97,0 6.1,1.46 6.1,2.1 v 1.1 H 5.9 V 17 c 0,-0.64 3.13,-2.1 6.1,-2.1 M 12,4 C 9.79,4 8,5.79 8,8 c 0,2.21 1.79,4 4,4 2.21,0 4,-1.79 4,-4 0,-2.21 -1.79,-4 -4,-4 z m 0,9 c -2.67,0 -8,1.34 -8,4 v 3 h 16 v -3 c 0,-2.66 -5.33,-4 -8,-4 z"
         id="path3961" />
      <path
         style="fill:none"
         inkscape:connector-curvature="0"
         d="M 0,0 H 24 V 24 H 0 z"
         id="path3963" />
    </g>
    <path
       style="fill:#000400;fill-opacity:0.89411765"
       inkscape:connector-curvature="0"
       d="M 19,2 H 14.82 C 14.4,0.84 13.3,0 12,0 10.7,0 9.6,0.84 9.18,2 H 5 C 3.9,2 3,2.9 3,4 v 16 c 0,1.1 0.9,2 2,2 h 14 c 1.1,0 2,-0.9 2,-2 V 4 C 21,2.9 20.1,2 19,2 z m -7,0 c 0.55,0 1,0.45 1,1 0,0.55 -0.45,1 -1,1 -0.55,0 -1,-0.45 -1,-1 0,-0.55 0.45,-1 1,-1 z m 7,18 H 5 V 4 H 7 V 7 H 17 V 4 h 2 v 16 z"
       id="path4001"
       transform="matrix(18.897393,0,0,19.792261,179.75777,29.258217)" />
    <rect
       y="340.40033"
       x="302.21024"
       height="13.80656"
       width="219.3709"
       id="rect4015"
       style="fill:#237a9d;fill-opacity:1" />
    <rect
       y="368.78049"
       x="302.04541"
       height="13.80656"
       width="219.3709"
       id="rect4015-1"
       style="fill:#237a9d;fill-opacity:1" />
    <rect
       y="394.85959"
       x="302.51135"
       height="13.80656"
       width="219.3709"
       id="rect4015-7"
       style="fill:#237a9d;fill-opacity:1" />
  </g>
</svg>
